<mxfile host="app.diagrams.net" agent="Mozilla/5.0 (Windows NT 10.0; Win64; x64) AppleWebKit/537.36 (KHTML, like Gecko) Chrome/136.0.0.0 Safari/537.36" version="27.1.1">
  <diagram name="Pagină-1" id="FXPqD5-Xi9O7ps_5Nkma">
    <mxGraphModel dx="2377" dy="1238" grid="1" gridSize="10" guides="1" tooltips="1" connect="1" arrows="1" fold="1" page="1" pageScale="1" pageWidth="827" pageHeight="1169" math="0" shadow="0">
      <root>
        <mxCell id="0" />
        <mxCell id="1" parent="0" />
        <mxCell id="8nA0Rh1-UXfHZlDTwRZV-1" value="&lt;font style=&quot;font-size: 15px;&quot;&gt;&lt;b style=&quot;&quot;&gt;Client UI&lt;/b&gt;&lt;/font&gt;&lt;div&gt;&lt;font style=&quot;font-size: 14px;&quot;&gt;&lt;i&gt;React | gRPC Client&lt;/i&gt;&lt;/font&gt;&lt;/div&gt;" style="ellipse;whiteSpace=wrap;html=1;" parent="1" vertex="1">
          <mxGeometry x="40" y="85" width="140" height="90" as="geometry" />
        </mxCell>
        <mxCell id="8nA0Rh1-UXfHZlDTwRZV-15" value="&lt;font style=&quot;font-size: 15px;&quot;&gt;&lt;b&gt;Proxy&lt;/b&gt;&lt;/font&gt;&lt;div&gt;&lt;font style=&quot;font-size: 14px;&quot;&gt;&lt;i&gt;Envoy&lt;/i&gt;&lt;/font&gt;&lt;/div&gt;" style="ellipse;whiteSpace=wrap;html=1;" parent="1" vertex="1">
          <mxGeometry x="480" y="377" width="150" height="102" as="geometry" />
        </mxCell>
        <mxCell id="8nA0Rh1-UXfHZlDTwRZV-16" value="" style="endArrow=classic;startArrow=classic;html=1;rounded=0;exitX=0.5;exitY=1;exitDx=0;exitDy=0;entryX=0;entryY=0.5;entryDx=0;entryDy=0;" parent="1" source="ScuUsJSq9s-L0LrTq36s-1" target="8nA0Rh1-UXfHZlDTwRZV-15" edge="1">
          <mxGeometry width="50" height="50" relative="1" as="geometry">
            <mxPoint x="436" y="360" as="sourcePoint" />
            <mxPoint x="516" y="320" as="targetPoint" />
          </mxGeometry>
        </mxCell>
        <mxCell id="8nA0Rh1-UXfHZlDTwRZV-19" value="&lt;font style=&quot;font-size: 15px;&quot;&gt;&lt;b&gt;UserAuth Microservice&lt;/b&gt;&lt;/font&gt;&lt;div&gt;&lt;font style=&quot;font-size: 14px;&quot;&gt;&lt;i&gt;gRPC Server | FastAPI&lt;/i&gt;&lt;/font&gt;&lt;/div&gt;" style="ellipse;whiteSpace=wrap;html=1;" parent="1" vertex="1">
          <mxGeometry x="810.5" y="367" width="179" height="122" as="geometry" />
        </mxCell>
        <mxCell id="8nA0Rh1-UXfHZlDTwRZV-20" value="" style="endArrow=classic;startArrow=classic;html=1;rounded=0;exitX=1;exitY=0.5;exitDx=0;exitDy=0;entryX=0;entryY=0.5;entryDx=0;entryDy=0;" parent="1" source="8nA0Rh1-UXfHZlDTwRZV-15" target="8nA0Rh1-UXfHZlDTwRZV-19" edge="1">
          <mxGeometry width="50" height="50" relative="1" as="geometry">
            <mxPoint x="736" y="453" as="sourcePoint" />
            <mxPoint x="786" y="403" as="targetPoint" />
          </mxGeometry>
        </mxCell>
        <mxCell id="8nA0Rh1-UXfHZlDTwRZV-24" value="user-account" style="shape=table;startSize=30;container=1;collapsible=1;childLayout=tableLayout;fixedRows=1;rowLines=0;fontStyle=1;align=center;resizeLast=1;html=1;" parent="1" vertex="1">
          <mxGeometry x="1438" y="750" width="248" height="213" as="geometry" />
        </mxCell>
        <mxCell id="8nA0Rh1-UXfHZlDTwRZV-25" value="" style="shape=tableRow;horizontal=0;startSize=0;swimlaneHead=0;swimlaneBody=0;fillColor=none;collapsible=0;dropTarget=0;points=[[0,0.5],[1,0.5]];portConstraint=eastwest;top=0;left=0;right=0;bottom=1;" parent="8nA0Rh1-UXfHZlDTwRZV-24" vertex="1">
          <mxGeometry y="30" width="248" height="30" as="geometry" />
        </mxCell>
        <mxCell id="8nA0Rh1-UXfHZlDTwRZV-26" value="PK" style="shape=partialRectangle;connectable=0;fillColor=none;top=0;left=0;bottom=0;right=0;fontStyle=1;overflow=hidden;whiteSpace=wrap;html=1;" parent="8nA0Rh1-UXfHZlDTwRZV-25" vertex="1">
          <mxGeometry width="128" height="30" as="geometry">
            <mxRectangle width="128" height="30" as="alternateBounds" />
          </mxGeometry>
        </mxCell>
        <mxCell id="8nA0Rh1-UXfHZlDTwRZV-27" value="ID:BIGINT" style="shape=partialRectangle;connectable=0;fillColor=none;top=0;left=0;bottom=0;right=0;align=left;spacingLeft=6;fontStyle=5;overflow=hidden;whiteSpace=wrap;html=1;" parent="8nA0Rh1-UXfHZlDTwRZV-25" vertex="1">
          <mxGeometry x="128" width="120" height="30" as="geometry">
            <mxRectangle width="120" height="30" as="alternateBounds" />
          </mxGeometry>
        </mxCell>
        <mxCell id="8nA0Rh1-UXfHZlDTwRZV-28" value="" style="shape=tableRow;horizontal=0;startSize=0;swimlaneHead=0;swimlaneBody=0;fillColor=none;collapsible=0;dropTarget=0;points=[[0,0.5],[1,0.5]];portConstraint=eastwest;top=0;left=0;right=0;bottom=0;" parent="8nA0Rh1-UXfHZlDTwRZV-24" vertex="1">
          <mxGeometry y="60" width="248" height="40" as="geometry" />
        </mxCell>
        <mxCell id="8nA0Rh1-UXfHZlDTwRZV-29" value="VARCHAR" style="shape=partialRectangle;connectable=0;fillColor=none;top=0;left=0;bottom=0;right=0;editable=1;overflow=hidden;whiteSpace=wrap;html=1;" parent="8nA0Rh1-UXfHZlDTwRZV-28" vertex="1">
          <mxGeometry width="128" height="40" as="geometry">
            <mxRectangle width="128" height="40" as="alternateBounds" />
          </mxGeometry>
        </mxCell>
        <mxCell id="8nA0Rh1-UXfHZlDTwRZV-30" value="email" style="shape=partialRectangle;connectable=0;fillColor=none;top=0;left=0;bottom=0;right=0;align=left;spacingLeft=6;overflow=hidden;whiteSpace=wrap;html=1;" parent="8nA0Rh1-UXfHZlDTwRZV-28" vertex="1">
          <mxGeometry x="128" width="120" height="40" as="geometry">
            <mxRectangle width="120" height="40" as="alternateBounds" />
          </mxGeometry>
        </mxCell>
        <mxCell id="8nA0Rh1-UXfHZlDTwRZV-31" value="" style="shape=tableRow;horizontal=0;startSize=0;swimlaneHead=0;swimlaneBody=0;fillColor=none;collapsible=0;dropTarget=0;points=[[0,0.5],[1,0.5]];portConstraint=eastwest;top=0;left=0;right=0;bottom=0;" parent="8nA0Rh1-UXfHZlDTwRZV-24" vertex="1">
          <mxGeometry y="100" width="248" height="40" as="geometry" />
        </mxCell>
        <mxCell id="8nA0Rh1-UXfHZlDTwRZV-32" value="VARCHAR" style="shape=partialRectangle;connectable=0;fillColor=none;top=0;left=0;bottom=0;right=0;editable=1;overflow=hidden;whiteSpace=wrap;html=1;" parent="8nA0Rh1-UXfHZlDTwRZV-31" vertex="1">
          <mxGeometry width="128" height="40" as="geometry">
            <mxRectangle width="128" height="40" as="alternateBounds" />
          </mxGeometry>
        </mxCell>
        <mxCell id="8nA0Rh1-UXfHZlDTwRZV-33" value="password" style="shape=partialRectangle;connectable=0;fillColor=none;top=0;left=0;bottom=0;right=0;align=left;spacingLeft=6;overflow=hidden;whiteSpace=wrap;html=1;" parent="8nA0Rh1-UXfHZlDTwRZV-31" vertex="1">
          <mxGeometry x="128" width="120" height="40" as="geometry">
            <mxRectangle width="120" height="40" as="alternateBounds" />
          </mxGeometry>
        </mxCell>
        <mxCell id="fJvDgkGEsmQ1cLDRvCxi-20" style="shape=tableRow;horizontal=0;startSize=0;swimlaneHead=0;swimlaneBody=0;fillColor=none;collapsible=0;dropTarget=0;points=[[0,0.5],[1,0.5]];portConstraint=eastwest;top=0;left=0;right=0;bottom=0;" parent="8nA0Rh1-UXfHZlDTwRZV-24" vertex="1">
          <mxGeometry y="140" width="248" height="73" as="geometry" />
        </mxCell>
        <mxCell id="fJvDgkGEsmQ1cLDRvCxi-21" value="ENUM&amp;nbsp;&lt;span style=&quot;background-color: transparent; color: light-dark(rgb(0, 0, 0), rgb(255, 255, 255));&quot;&gt;(&lt;/span&gt;&lt;div&gt;&lt;div&gt;&lt;font style=&quot;font-size: 11px;&quot;&gt;&lt;i&gt;CLIENT,&lt;/i&gt;&lt;/font&gt;&lt;/div&gt;&lt;div&gt;&lt;font style=&quot;font-size: 11px;&quot;&gt;&lt;i&gt;SERVICE_PROVIDER&lt;/i&gt;&lt;/font&gt;&lt;br&gt;&lt;div&gt;)&lt;/div&gt;&lt;/div&gt;&lt;/div&gt;" style="shape=partialRectangle;connectable=0;fillColor=none;top=0;left=0;bottom=0;right=0;editable=1;overflow=hidden;whiteSpace=wrap;html=1;" parent="fJvDgkGEsmQ1cLDRvCxi-20" vertex="1">
          <mxGeometry width="128" height="73" as="geometry">
            <mxRectangle width="128" height="73" as="alternateBounds" />
          </mxGeometry>
        </mxCell>
        <mxCell id="fJvDgkGEsmQ1cLDRvCxi-22" value="role" style="shape=partialRectangle;connectable=0;fillColor=none;top=0;left=0;bottom=0;right=0;align=left;spacingLeft=6;overflow=hidden;whiteSpace=wrap;html=1;" parent="fJvDgkGEsmQ1cLDRvCxi-20" vertex="1">
          <mxGeometry x="128" width="120" height="73" as="geometry">
            <mxRectangle width="120" height="73" as="alternateBounds" />
          </mxGeometry>
        </mxCell>
        <mxCell id="ScuUsJSq9s-L0LrTq36s-1" value="&lt;span style=&quot;font-size: 15px;&quot;&gt;&lt;b&gt;Proxy&lt;/b&gt;&lt;/span&gt;&lt;div&gt;&lt;font style=&quot;font-size: 14px;&quot;&gt;&lt;i style=&quot;&quot;&gt;Nginx&lt;/i&gt;&lt;/font&gt;&lt;/div&gt;" style="ellipse;whiteSpace=wrap;html=1;" parent="1" vertex="1">
          <mxGeometry x="290" y="75" width="160" height="110" as="geometry" />
        </mxCell>
        <mxCell id="ScuUsJSq9s-L0LrTq36s-3" value="" style="endArrow=classic;startArrow=classic;html=1;rounded=0;exitX=1;exitY=0.5;exitDx=0;exitDy=0;entryX=0;entryY=0.5;entryDx=0;entryDy=0;" parent="1" source="8nA0Rh1-UXfHZlDTwRZV-1" target="ScuUsJSq9s-L0LrTq36s-1" edge="1">
          <mxGeometry width="50" height="50" relative="1" as="geometry">
            <mxPoint x="210" y="155" as="sourcePoint" />
            <mxPoint x="260" y="105" as="targetPoint" />
          </mxGeometry>
        </mxCell>
        <mxCell id="ScuUsJSq9s-L0LrTq36s-8" value="&lt;i&gt;&lt;font style=&quot;font-size: 20px;&quot;&gt;&lt;u style=&quot;&quot;&gt;Diagramă de Componente&lt;/u&gt;&lt;/font&gt;&lt;/i&gt;" style="text;html=1;align=center;verticalAlign=middle;whiteSpace=wrap;rounded=0;" parent="1" vertex="1">
          <mxGeometry x="77" y="5" width="240" height="50" as="geometry" />
        </mxCell>
        <mxCell id="ScuUsJSq9s-L0LrTq36s-9" value="&lt;font&gt;&lt;i&gt;&lt;u&gt;Diagramă UserAuth Microservice&lt;/u&gt;&lt;/i&gt;&lt;/font&gt;" style="text;html=1;align=center;verticalAlign=middle;whiteSpace=wrap;rounded=0;fontSize=20;" parent="1" vertex="1">
          <mxGeometry x="50" y="660" width="280" height="70" as="geometry" />
        </mxCell>
        <mxCell id="ScuUsJSq9s-L0LrTq36s-12" value="&lt;font style=&quot;font-size: 15px;&quot;&gt;&lt;b&gt;(Conversion) Proxy&lt;/b&gt;&lt;/font&gt;&lt;div&gt;&lt;font style=&quot;font-size: 14px;&quot;&gt;&lt;i&gt;Envoy&lt;/i&gt;&lt;/font&gt;&lt;/div&gt;" style="ellipse;whiteSpace=wrap;html=1;" parent="1" vertex="1">
          <mxGeometry x="660" y="893" width="146" height="100" as="geometry" />
        </mxCell>
        <mxCell id="ScuUsJSq9s-L0LrTq36s-14" value="&lt;font style=&quot;font-size: 15px;&quot;&gt;&lt;b&gt;UserAuth Microservice&lt;/b&gt;&lt;/font&gt;&lt;div&gt;&lt;font style=&quot;font-size: 14px;&quot;&gt;&lt;i&gt;gRPC Server | FastAPI&lt;/i&gt;&lt;/font&gt;&lt;/div&gt;" style="ellipse;whiteSpace=wrap;html=1;" parent="1" vertex="1">
          <mxGeometry x="956" y="879.5" width="174" height="127" as="geometry" />
        </mxCell>
        <mxCell id="ScuUsJSq9s-L0LrTq36s-15" value="" style="endArrow=classic;startArrow=classic;html=1;rounded=0;exitX=1;exitY=0.5;exitDx=0;exitDy=0;entryX=0;entryY=0.5;entryDx=0;entryDy=0;" parent="1" source="ScuUsJSq9s-L0LrTq36s-12" target="ScuUsJSq9s-L0LrTq36s-14" edge="1">
          <mxGeometry width="50" height="50" relative="1" as="geometry">
            <mxPoint x="823" y="968" as="sourcePoint" />
            <mxPoint x="873" y="918" as="targetPoint" />
          </mxGeometry>
        </mxCell>
        <mxCell id="ScuUsJSq9s-L0LrTq36s-23" value="HTTP/2" style="edgeLabel;html=1;align=center;verticalAlign=middle;resizable=0;points=[];fontSize=12;" parent="ScuUsJSq9s-L0LrTq36s-15" vertex="1" connectable="0">
          <mxGeometry x="0.1925" y="-1" relative="1" as="geometry">
            <mxPoint x="-14" as="offset" />
          </mxGeometry>
        </mxCell>
        <mxCell id="ScuUsJSq9s-L0LrTq36s-16" value="&lt;b&gt;&lt;font style=&quot;font-size: 15px;&quot;&gt;DB&lt;/font&gt;&lt;/b&gt;&lt;div&gt;&lt;font style=&quot;font-size: 14px;&quot;&gt;&lt;i style=&quot;&quot;&gt;MariaDB&lt;/i&gt;&lt;/font&gt;&lt;/div&gt;" style="shape=cylinder3;whiteSpace=wrap;html=1;boundedLbl=1;backgroundOutline=1;size=15;" parent="1" vertex="1">
          <mxGeometry x="929" y="1063" width="64" height="90" as="geometry" />
        </mxCell>
        <mxCell id="ScuUsJSq9s-L0LrTq36s-21" value="" style="endArrow=classic;startArrow=classic;html=1;rounded=0;exitX=1;exitY=0.5;exitDx=0;exitDy=0;entryX=0;entryY=0.5;entryDx=0;entryDy=0;" parent="1" source="crXB8hbRIwwjcSzF-EqF-18" target="ScuUsJSq9s-L0LrTq36s-12" edge="1">
          <mxGeometry width="50" height="50" relative="1" as="geometry">
            <mxPoint x="523.9999999999998" y="813.5000000000002" as="sourcePoint" />
            <mxPoint x="597" y="943" as="targetPoint" />
          </mxGeometry>
        </mxCell>
        <mxCell id="ScuUsJSq9s-L0LrTq36s-22" value="HTTP/1.1&lt;div&gt;application/grpc-web&lt;/div&gt;" style="edgeLabel;html=1;align=center;verticalAlign=middle;resizable=0;points=[];fontSize=12;" parent="ScuUsJSq9s-L0LrTq36s-21" vertex="1" connectable="0">
          <mxGeometry x="-0.0614" y="1" relative="1" as="geometry">
            <mxPoint x="1" as="offset" />
          </mxGeometry>
        </mxCell>
        <mxCell id="ScuUsJSq9s-L0LrTq36s-24" value="&lt;font&gt;&lt;i&gt;&lt;u&gt;Diagramă Entitate-Relație&lt;/u&gt;&lt;/i&gt;&lt;/font&gt;&lt;div&gt;&lt;span&gt;&lt;i&gt;&lt;u&gt;UserAuth Microservice&lt;/u&gt;&lt;/i&gt;&lt;/span&gt;&lt;/div&gt;" style="text;html=1;align=center;verticalAlign=middle;whiteSpace=wrap;rounded=0;fontSize=20;" parent="1" vertex="1">
          <mxGeometry x="1399" y="667" width="240" height="70" as="geometry" />
        </mxCell>
        <mxCell id="2FqLa4DTJuIObJsq9_Xk-1" value="&lt;font style=&quot;font-size: 15px;&quot;&gt;&lt;b&gt;UserManagementMicroservice&lt;br&gt;&lt;/b&gt;&lt;/font&gt;&lt;div&gt;&lt;i&gt;&lt;font style=&quot;font-size: 14px;&quot;&gt;ASP.NET Core Web API |&amp;nbsp; gRPC Client&lt;/font&gt;&lt;/i&gt;&lt;/div&gt;" style="ellipse;whiteSpace=wrap;html=1;" parent="1" vertex="1">
          <mxGeometry x="780" y="65.88" width="240" height="128.25" as="geometry" />
        </mxCell>
        <mxCell id="2FqLa4DTJuIObJsq9_Xk-2" value="" style="endArrow=classic;startArrow=classic;html=1;rounded=0;exitX=1;exitY=0.5;exitDx=0;exitDy=0;entryX=0;entryY=0.5;entryDx=0;entryDy=0;" parent="1" target="2FqLa4DTJuIObJsq9_Xk-1" edge="1">
          <mxGeometry width="50" height="50" relative="1" as="geometry">
            <mxPoint x="450" y="129.17" as="sourcePoint" />
            <mxPoint x="620" y="129.17" as="targetPoint" />
          </mxGeometry>
        </mxCell>
        <mxCell id="2FqLa4DTJuIObJsq9_Xk-3" value="&lt;b&gt;&lt;font style=&quot;font-size: 15px;&quot;&gt;DB&lt;/font&gt;&lt;/b&gt;&lt;div&gt;&lt;font style=&quot;font-size: 14px;&quot;&gt;&lt;i style=&quot;&quot;&gt;MariaDB&lt;/i&gt;&lt;/font&gt;&lt;/div&gt;" style="shape=cylinder3;whiteSpace=wrap;html=1;boundedLbl=1;backgroundOutline=1;size=15;" parent="1" vertex="1">
          <mxGeometry x="1116" y="84" width="64" height="90" as="geometry" />
        </mxCell>
        <mxCell id="2FqLa4DTJuIObJsq9_Xk-6" value="&lt;span style=&quot;font-size: 15px;&quot;&gt;&lt;b&gt;Messaging Broker&lt;/b&gt;&lt;/span&gt;&lt;div&gt;&lt;font style=&quot;font-size: 14px;&quot;&gt;&lt;i&gt;RabbitMQ&lt;/i&gt;&lt;/font&gt;&lt;/div&gt;" style="ellipse;whiteSpace=wrap;html=1;" parent="1" vertex="1">
          <mxGeometry x="1082" y="250" width="146" height="100" as="geometry" />
        </mxCell>
        <mxCell id="2FqLa4DTJuIObJsq9_Xk-7" value="" style="endArrow=classic;html=1;rounded=0;exitX=1;exitY=1;exitDx=0;exitDy=0;startArrow=classic;startFill=1;" parent="1" source="2FqLa4DTJuIObJsq9_Xk-1" target="2FqLa4DTJuIObJsq9_Xk-6" edge="1">
          <mxGeometry width="50" height="50" relative="1" as="geometry">
            <mxPoint x="938" y="268" as="sourcePoint" />
            <mxPoint x="1148" y="188" as="targetPoint" />
          </mxGeometry>
        </mxCell>
        <mxCell id="2FqLa4DTJuIObJsq9_Xk-8" value="" style="endArrow=classic;html=1;rounded=0;exitX=0;exitY=1;exitDx=0;exitDy=0;entryX=1;entryY=0.5;entryDx=0;entryDy=0;startArrow=classic;startFill=1;" parent="1" source="2FqLa4DTJuIObJsq9_Xk-6" target="8nA0Rh1-UXfHZlDTwRZV-19" edge="1">
          <mxGeometry width="50" height="50" relative="1" as="geometry">
            <mxPoint x="1190" y="379" as="sourcePoint" />
            <mxPoint x="1310" y="478" as="targetPoint" />
          </mxGeometry>
        </mxCell>
        <mxCell id="2FqLa4DTJuIObJsq9_Xk-10" value="&lt;span style=&quot;font-size: 15px;&quot;&gt;&lt;b&gt;Messaging Broker&lt;/b&gt;&lt;/span&gt;&lt;div&gt;&lt;font style=&quot;font-size: 14px;&quot;&gt;RabbitMQ&lt;/font&gt;&lt;/div&gt;" style="ellipse;whiteSpace=wrap;html=1;" parent="1" vertex="1">
          <mxGeometry x="1190" y="768" width="146" height="100" as="geometry" />
        </mxCell>
        <mxCell id="2FqLa4DTJuIObJsq9_Xk-14" value="" style="endArrow=none;dashed=1;html=1;dashPattern=1 3;strokeWidth=2;rounded=0;exitX=0;exitY=0;exitDx=0;exitDy=0;" parent="1" source="2FqLa4DTJuIObJsq9_Xk-10" edge="1">
          <mxGeometry width="50" height="50" relative="1" as="geometry">
            <mxPoint x="1076" y="651" as="sourcePoint" />
            <mxPoint x="1130" y="707" as="targetPoint" />
          </mxGeometry>
        </mxCell>
        <mxCell id="2FqLa4DTJuIObJsq9_Xk-15" value="&lt;span style=&quot;font-size: 15px;&quot;&gt;&lt;b&gt;Proxy&lt;/b&gt;&lt;/span&gt;&lt;div&gt;&lt;font style=&quot;font-size: 14px;&quot;&gt;&lt;i style=&quot;&quot;&gt;Nginx&lt;/i&gt;&lt;/font&gt;&lt;/div&gt;" style="ellipse;whiteSpace=wrap;html=1;" parent="1" vertex="1">
          <mxGeometry x="140" y="1379" width="160" height="110" as="geometry" />
        </mxCell>
        <mxCell id="2FqLa4DTJuIObJsq9_Xk-17" value="" style="endArrow=classic;startArrow=classic;html=1;rounded=0;entryX=0;entryY=0.5;entryDx=0;entryDy=0;exitX=1;exitY=0.5;exitDx=0;exitDy=0;" parent="1" source="2FqLa4DTJuIObJsq9_Xk-15" target="crXB8hbRIwwjcSzF-EqF-36" edge="1">
          <mxGeometry width="50" height="50" relative="1" as="geometry">
            <mxPoint x="290" y="1434" as="sourcePoint" />
            <mxPoint x="490" y="1437.25" as="targetPoint" />
          </mxGeometry>
        </mxCell>
        <mxCell id="crXB8hbRIwwjcSzF-EqF-26" value="HTTP" style="edgeLabel;html=1;align=center;verticalAlign=middle;resizable=0;points=[];" parent="2FqLa4DTJuIObJsq9_Xk-17" vertex="1" connectable="0">
          <mxGeometry x="-0.005" y="1" relative="1" as="geometry">
            <mxPoint x="-1" as="offset" />
          </mxGeometry>
        </mxCell>
        <mxCell id="2FqLa4DTJuIObJsq9_Xk-18" value="&lt;b&gt;&lt;font style=&quot;font-size: 15px;&quot;&gt;DB&lt;/font&gt;&lt;/b&gt;&lt;div&gt;&lt;font style=&quot;font-size: 14px;&quot;&gt;&lt;i style=&quot;&quot;&gt;MariaDB&lt;/i&gt;&lt;/font&gt;&lt;/div&gt;" style="shape=cylinder3;whiteSpace=wrap;html=1;boundedLbl=1;backgroundOutline=1;size=15;" parent="1" vertex="1">
          <mxGeometry x="874" y="1389" width="64" height="90" as="geometry" />
        </mxCell>
        <mxCell id="2FqLa4DTJuIObJsq9_Xk-20" value="&lt;span style=&quot;font-size: 15px;&quot;&gt;&lt;b&gt;Messaging Broker&lt;/b&gt;&lt;/span&gt;&lt;div&gt;&lt;font style=&quot;font-size: 14px;&quot;&gt;&lt;i&gt;RabbitMQ&lt;/i&gt;&lt;/font&gt;&lt;/div&gt;" style="ellipse;whiteSpace=wrap;html=1;" parent="1" vertex="1">
          <mxGeometry x="814" y="1565" width="146" height="100" as="geometry" />
        </mxCell>
        <mxCell id="2FqLa4DTJuIObJsq9_Xk-24" value="" style="endArrow=none;dashed=1;html=1;dashPattern=1 3;strokeWidth=2;rounded=0;entryX=0;entryY=0.5;entryDx=0;entryDy=0;" parent="1" target="2FqLa4DTJuIObJsq9_Xk-15" edge="1">
          <mxGeometry width="50" height="50" relative="1" as="geometry">
            <mxPoint x="50" y="1434" as="sourcePoint" />
            <mxPoint x="100" y="1409" as="targetPoint" />
          </mxGeometry>
        </mxCell>
        <mxCell id="2FqLa4DTJuIObJsq9_Xk-28" value="" style="endArrow=none;dashed=1;html=1;dashPattern=1 3;strokeWidth=2;rounded=0;entryX=0;entryY=1;entryDx=0;entryDy=0;" parent="1" target="2FqLa4DTJuIObJsq9_Xk-20" edge="1">
          <mxGeometry width="50" height="50" relative="1" as="geometry">
            <mxPoint x="784" y="1700" as="sourcePoint" />
            <mxPoint x="764" y="1395" as="targetPoint" />
          </mxGeometry>
        </mxCell>
        <mxCell id="2FqLa4DTJuIObJsq9_Xk-29" value="&lt;font&gt;&lt;i&gt;&lt;u&gt;Diagramă UserManagement&amp;nbsp;&lt;/u&gt;&lt;/i&gt;&lt;/font&gt;&lt;i style=&quot;background-color: transparent; color: light-dark(rgb(0, 0, 0), rgb(255, 255, 255));&quot;&gt;&lt;u&gt;Microservice&lt;/u&gt;&lt;/i&gt;" style="text;html=1;align=center;verticalAlign=middle;whiteSpace=wrap;rounded=0;fontSize=20;" parent="1" vertex="1">
          <mxGeometry x="77" y="1279" width="333" height="70" as="geometry" />
        </mxCell>
        <mxCell id="2FqLa4DTJuIObJsq9_Xk-30" value="user_profile" style="shape=table;startSize=30;container=1;collapsible=1;childLayout=tableLayout;fixedRows=1;rowLines=0;fontStyle=1;align=center;resizeLast=1;html=1;" parent="1" vertex="1">
          <mxGeometry x="1211" y="1466" width="190" height="340" as="geometry" />
        </mxCell>
        <mxCell id="2FqLa4DTJuIObJsq9_Xk-31" value="" style="shape=tableRow;horizontal=0;startSize=0;swimlaneHead=0;swimlaneBody=0;fillColor=none;collapsible=0;dropTarget=0;points=[[0,0.5],[1,0.5]];portConstraint=eastwest;top=0;left=0;right=0;bottom=1;" parent="2FqLa4DTJuIObJsq9_Xk-30" vertex="1">
          <mxGeometry y="30" width="190" height="30" as="geometry" />
        </mxCell>
        <mxCell id="2FqLa4DTJuIObJsq9_Xk-32" value="PK" style="shape=partialRectangle;connectable=0;fillColor=none;top=0;left=0;bottom=0;right=0;fontStyle=1;overflow=hidden;whiteSpace=wrap;html=1;" parent="2FqLa4DTJuIObJsq9_Xk-31" vertex="1">
          <mxGeometry width="70" height="30" as="geometry">
            <mxRectangle width="70" height="30" as="alternateBounds" />
          </mxGeometry>
        </mxCell>
        <mxCell id="2FqLa4DTJuIObJsq9_Xk-33" value="ID:BIGINT" style="shape=partialRectangle;connectable=0;fillColor=none;top=0;left=0;bottom=0;right=0;align=left;spacingLeft=6;fontStyle=5;overflow=hidden;whiteSpace=wrap;html=1;" parent="2FqLa4DTJuIObJsq9_Xk-31" vertex="1">
          <mxGeometry x="70" width="120" height="30" as="geometry">
            <mxRectangle width="120" height="30" as="alternateBounds" />
          </mxGeometry>
        </mxCell>
        <mxCell id="fJvDgkGEsmQ1cLDRvCxi-23" style="shape=tableRow;horizontal=0;startSize=0;swimlaneHead=0;swimlaneBody=0;fillColor=none;collapsible=0;dropTarget=0;points=[[0,0.5],[1,0.5]];portConstraint=eastwest;top=0;left=0;right=0;bottom=0;" parent="2FqLa4DTJuIObJsq9_Xk-30" vertex="1">
          <mxGeometry y="60" width="190" height="40" as="geometry" />
        </mxCell>
        <mxCell id="fJvDgkGEsmQ1cLDRvCxi-24" value="VARCHAR" style="shape=partialRectangle;connectable=0;fillColor=none;top=0;left=0;bottom=0;right=0;editable=1;overflow=hidden;whiteSpace=wrap;html=1;" parent="fJvDgkGEsmQ1cLDRvCxi-23" vertex="1">
          <mxGeometry width="70" height="40" as="geometry">
            <mxRectangle width="70" height="40" as="alternateBounds" />
          </mxGeometry>
        </mxCell>
        <mxCell id="fJvDgkGEsmQ1cLDRvCxi-25" value="email" style="shape=partialRectangle;connectable=0;fillColor=none;top=0;left=0;bottom=0;right=0;align=left;spacingLeft=6;overflow=hidden;whiteSpace=wrap;html=1;" parent="fJvDgkGEsmQ1cLDRvCxi-23" vertex="1">
          <mxGeometry x="70" width="120" height="40" as="geometry">
            <mxRectangle width="120" height="40" as="alternateBounds" />
          </mxGeometry>
        </mxCell>
        <mxCell id="2FqLa4DTJuIObJsq9_Xk-34" value="" style="shape=tableRow;horizontal=0;startSize=0;swimlaneHead=0;swimlaneBody=0;fillColor=none;collapsible=0;dropTarget=0;points=[[0,0.5],[1,0.5]];portConstraint=eastwest;top=0;left=0;right=0;bottom=0;" parent="2FqLa4DTJuIObJsq9_Xk-30" vertex="1">
          <mxGeometry y="100" width="190" height="40" as="geometry" />
        </mxCell>
        <mxCell id="2FqLa4DTJuIObJsq9_Xk-35" value="VARCHAR" style="shape=partialRectangle;connectable=0;fillColor=none;top=0;left=0;bottom=0;right=0;editable=1;overflow=hidden;whiteSpace=wrap;html=1;" parent="2FqLa4DTJuIObJsq9_Xk-34" vertex="1">
          <mxGeometry width="70" height="40" as="geometry">
            <mxRectangle width="70" height="40" as="alternateBounds" />
          </mxGeometry>
        </mxCell>
        <mxCell id="2FqLa4DTJuIObJsq9_Xk-36" value="first_name" style="shape=partialRectangle;connectable=0;fillColor=none;top=0;left=0;bottom=0;right=0;align=left;spacingLeft=6;overflow=hidden;whiteSpace=wrap;html=1;" parent="2FqLa4DTJuIObJsq9_Xk-34" vertex="1">
          <mxGeometry x="70" width="120" height="40" as="geometry">
            <mxRectangle width="120" height="40" as="alternateBounds" />
          </mxGeometry>
        </mxCell>
        <mxCell id="2FqLa4DTJuIObJsq9_Xk-37" value="" style="shape=tableRow;horizontal=0;startSize=0;swimlaneHead=0;swimlaneBody=0;fillColor=none;collapsible=0;dropTarget=0;points=[[0,0.5],[1,0.5]];portConstraint=eastwest;top=0;left=0;right=0;bottom=0;" parent="2FqLa4DTJuIObJsq9_Xk-30" vertex="1">
          <mxGeometry y="140" width="190" height="40" as="geometry" />
        </mxCell>
        <mxCell id="2FqLa4DTJuIObJsq9_Xk-38" value="VARCHAR" style="shape=partialRectangle;connectable=0;fillColor=none;top=0;left=0;bottom=0;right=0;editable=1;overflow=hidden;whiteSpace=wrap;html=1;" parent="2FqLa4DTJuIObJsq9_Xk-37" vertex="1">
          <mxGeometry width="70" height="40" as="geometry">
            <mxRectangle width="70" height="40" as="alternateBounds" />
          </mxGeometry>
        </mxCell>
        <mxCell id="2FqLa4DTJuIObJsq9_Xk-39" value="last_name" style="shape=partialRectangle;connectable=0;fillColor=none;top=0;left=0;bottom=0;right=0;align=left;spacingLeft=6;overflow=hidden;whiteSpace=wrap;html=1;" parent="2FqLa4DTJuIObJsq9_Xk-37" vertex="1">
          <mxGeometry x="70" width="120" height="40" as="geometry">
            <mxRectangle width="120" height="40" as="alternateBounds" />
          </mxGeometry>
        </mxCell>
        <mxCell id="2FqLa4DTJuIObJsq9_Xk-49" value="" style="shape=tableRow;horizontal=0;startSize=0;swimlaneHead=0;swimlaneBody=0;fillColor=none;collapsible=0;dropTarget=0;points=[[0,0.5],[1,0.5]];portConstraint=eastwest;top=0;left=0;right=0;bottom=0;" parent="2FqLa4DTJuIObJsq9_Xk-30" vertex="1">
          <mxGeometry y="180" width="190" height="40" as="geometry" />
        </mxCell>
        <mxCell id="2FqLa4DTJuIObJsq9_Xk-50" value="VARCHAR" style="shape=partialRectangle;connectable=0;fillColor=none;top=0;left=0;bottom=0;right=0;editable=1;overflow=hidden;whiteSpace=wrap;html=1;" parent="2FqLa4DTJuIObJsq9_Xk-49" vertex="1">
          <mxGeometry width="70" height="40" as="geometry">
            <mxRectangle width="70" height="40" as="alternateBounds" />
          </mxGeometry>
        </mxCell>
        <mxCell id="2FqLa4DTJuIObJsq9_Xk-51" value="phone_number" style="shape=partialRectangle;connectable=0;fillColor=none;top=0;left=0;bottom=0;right=0;align=left;spacingLeft=6;overflow=hidden;whiteSpace=wrap;html=1;" parent="2FqLa4DTJuIObJsq9_Xk-49" vertex="1">
          <mxGeometry x="70" width="120" height="40" as="geometry">
            <mxRectangle width="120" height="40" as="alternateBounds" />
          </mxGeometry>
        </mxCell>
        <mxCell id="2FqLa4DTJuIObJsq9_Xk-52" value="" style="shape=tableRow;horizontal=0;startSize=0;swimlaneHead=0;swimlaneBody=0;fillColor=none;collapsible=0;dropTarget=0;points=[[0,0.5],[1,0.5]];portConstraint=eastwest;top=0;left=0;right=0;bottom=0;" parent="2FqLa4DTJuIObJsq9_Xk-30" vertex="1">
          <mxGeometry y="220" width="190" height="40" as="geometry" />
        </mxCell>
        <mxCell id="2FqLa4DTJuIObJsq9_Xk-53" value="VARCHAR" style="shape=partialRectangle;connectable=0;fillColor=none;top=0;left=0;bottom=0;right=0;editable=1;overflow=hidden;whiteSpace=wrap;html=1;" parent="2FqLa4DTJuIObJsq9_Xk-52" vertex="1">
          <mxGeometry width="70" height="40" as="geometry">
            <mxRectangle width="70" height="40" as="alternateBounds" />
          </mxGeometry>
        </mxCell>
        <mxCell id="2FqLa4DTJuIObJsq9_Xk-54" value="country" style="shape=partialRectangle;connectable=0;fillColor=none;top=0;left=0;bottom=0;right=0;align=left;spacingLeft=6;overflow=hidden;whiteSpace=wrap;html=1;" parent="2FqLa4DTJuIObJsq9_Xk-52" vertex="1">
          <mxGeometry x="70" width="120" height="40" as="geometry">
            <mxRectangle width="120" height="40" as="alternateBounds" />
          </mxGeometry>
        </mxCell>
        <mxCell id="2FqLa4DTJuIObJsq9_Xk-58" value="" style="shape=tableRow;horizontal=0;startSize=0;swimlaneHead=0;swimlaneBody=0;fillColor=none;collapsible=0;dropTarget=0;points=[[0,0.5],[1,0.5]];portConstraint=eastwest;top=0;left=0;right=0;bottom=0;" parent="2FqLa4DTJuIObJsq9_Xk-30" vertex="1">
          <mxGeometry y="260" width="190" height="40" as="geometry" />
        </mxCell>
        <mxCell id="2FqLa4DTJuIObJsq9_Xk-59" value="VARCHAR" style="shape=partialRectangle;connectable=0;fillColor=none;top=0;left=0;bottom=0;right=0;editable=1;overflow=hidden;whiteSpace=wrap;html=1;" parent="2FqLa4DTJuIObJsq9_Xk-58" vertex="1">
          <mxGeometry width="70" height="40" as="geometry">
            <mxRectangle width="70" height="40" as="alternateBounds" />
          </mxGeometry>
        </mxCell>
        <mxCell id="2FqLa4DTJuIObJsq9_Xk-60" value="city" style="shape=partialRectangle;connectable=0;fillColor=none;top=0;left=0;bottom=0;right=0;align=left;spacingLeft=6;overflow=hidden;whiteSpace=wrap;html=1;" parent="2FqLa4DTJuIObJsq9_Xk-58" vertex="1">
          <mxGeometry x="70" width="120" height="40" as="geometry">
            <mxRectangle width="120" height="40" as="alternateBounds" />
          </mxGeometry>
        </mxCell>
        <mxCell id="2FqLa4DTJuIObJsq9_Xk-61" value="" style="shape=tableRow;horizontal=0;startSize=0;swimlaneHead=0;swimlaneBody=0;fillColor=none;collapsible=0;dropTarget=0;points=[[0,0.5],[1,0.5]];portConstraint=eastwest;top=0;left=0;right=0;bottom=0;" parent="2FqLa4DTJuIObJsq9_Xk-30" vertex="1">
          <mxGeometry y="300" width="190" height="40" as="geometry" />
        </mxCell>
        <mxCell id="2FqLa4DTJuIObJsq9_Xk-62" value="VARCHAR" style="shape=partialRectangle;connectable=0;fillColor=none;top=0;left=0;bottom=0;right=0;editable=1;overflow=hidden;whiteSpace=wrap;html=1;" parent="2FqLa4DTJuIObJsq9_Xk-61" vertex="1">
          <mxGeometry width="70" height="40" as="geometry">
            <mxRectangle width="70" height="40" as="alternateBounds" />
          </mxGeometry>
        </mxCell>
        <mxCell id="2FqLa4DTJuIObJsq9_Xk-63" value="address" style="shape=partialRectangle;connectable=0;fillColor=none;top=0;left=0;bottom=0;right=0;align=left;spacingLeft=6;overflow=hidden;whiteSpace=wrap;html=1;" parent="2FqLa4DTJuIObJsq9_Xk-61" vertex="1">
          <mxGeometry x="70" width="120" height="40" as="geometry">
            <mxRectangle width="120" height="40" as="alternateBounds" />
          </mxGeometry>
        </mxCell>
        <mxCell id="fJvDgkGEsmQ1cLDRvCxi-45" value="&lt;font style=&quot;forced-color-adjust: none; color: rgb(0, 0, 0); font-family: Helvetica; font-size: 20px; font-style: normal; font-variant-ligatures: normal; font-variant-caps: normal; font-weight: 400; letter-spacing: normal; orphans: 2; text-align: center; text-indent: 0px; text-transform: none; widows: 2; word-spacing: 0px; -webkit-text-stroke-width: 0px; white-space: normal; background-color: rgb(251, 251, 251); text-decoration-thickness: initial; text-decoration-style: initial; text-decoration-color: initial;&quot;&gt;&lt;i style=&quot;forced-color-adjust: none;&quot;&gt;&lt;u style=&quot;forced-color-adjust: none;&quot;&gt;Diagramă Entitate-Relație&lt;/u&gt;&lt;/i&gt;&lt;/font&gt;&lt;div style=&quot;forced-color-adjust: none; color: rgb(0, 0, 0); font-family: Helvetica; font-size: 20px; font-variant-ligatures: normal; font-variant-caps: normal; font-weight: 400; letter-spacing: normal; orphans: 2; text-align: center; text-indent: 0px; text-transform: none; widows: 2; word-spacing: 0px; -webkit-text-stroke-width: 0px; white-space: normal; background-color: rgb(251, 251, 251); text-decoration-thickness: initial; text-decoration-style: initial; text-decoration-color: initial;&quot;&gt;&lt;i&gt;&lt;u&gt;UserManagement Microservice&lt;/u&gt;&lt;/i&gt;&lt;/div&gt;" style="text;whiteSpace=wrap;html=1;" parent="1" vertex="1">
          <mxGeometry x="1200" y="1309" width="260" height="70" as="geometry" />
        </mxCell>
        <mxCell id="fJvDgkGEsmQ1cLDRvCxi-46" value="client" style="shape=table;startSize=30;container=1;collapsible=1;childLayout=tableLayout;fixedRows=1;rowLines=0;fontStyle=1;align=center;resizeLast=1;html=1;" parent="1" vertex="1">
          <mxGeometry x="1731" y="1366" width="180" height="91" as="geometry" />
        </mxCell>
        <mxCell id="fJvDgkGEsmQ1cLDRvCxi-47" value="" style="shape=tableRow;horizontal=0;startSize=0;swimlaneHead=0;swimlaneBody=0;fillColor=none;collapsible=0;dropTarget=0;points=[[0,0.5],[1,0.5]];portConstraint=eastwest;top=0;left=0;right=0;bottom=1;" parent="fJvDgkGEsmQ1cLDRvCxi-46" vertex="1">
          <mxGeometry y="30" width="180" height="30" as="geometry" />
        </mxCell>
        <mxCell id="fJvDgkGEsmQ1cLDRvCxi-48" value="PK" style="shape=partialRectangle;connectable=0;fillColor=none;top=0;left=0;bottom=0;right=0;fontStyle=1;overflow=hidden;whiteSpace=wrap;html=1;" parent="fJvDgkGEsmQ1cLDRvCxi-47" vertex="1">
          <mxGeometry width="30" height="30" as="geometry">
            <mxRectangle width="30" height="30" as="alternateBounds" />
          </mxGeometry>
        </mxCell>
        <mxCell id="fJvDgkGEsmQ1cLDRvCxi-49" value="ID:BIGINT" style="shape=partialRectangle;connectable=0;fillColor=none;top=0;left=0;bottom=0;right=0;align=left;spacingLeft=6;fontStyle=5;overflow=hidden;whiteSpace=wrap;html=1;" parent="fJvDgkGEsmQ1cLDRvCxi-47" vertex="1">
          <mxGeometry x="30" width="150" height="30" as="geometry">
            <mxRectangle width="150" height="30" as="alternateBounds" />
          </mxGeometry>
        </mxCell>
        <mxCell id="fJvDgkGEsmQ1cLDRvCxi-50" value="" style="shape=tableRow;horizontal=0;startSize=0;swimlaneHead=0;swimlaneBody=0;fillColor=none;collapsible=0;dropTarget=0;points=[[0,0.5],[1,0.5]];portConstraint=eastwest;top=0;left=0;right=0;bottom=0;" parent="fJvDgkGEsmQ1cLDRvCxi-46" vertex="1">
          <mxGeometry y="60" width="180" height="31" as="geometry" />
        </mxCell>
        <mxCell id="fJvDgkGEsmQ1cLDRvCxi-51" value="FK" style="shape=partialRectangle;connectable=0;fillColor=none;top=0;left=0;bottom=0;right=0;editable=1;overflow=hidden;whiteSpace=wrap;html=1;" parent="fJvDgkGEsmQ1cLDRvCxi-50" vertex="1">
          <mxGeometry width="30" height="31" as="geometry">
            <mxRectangle width="30" height="31" as="alternateBounds" />
          </mxGeometry>
        </mxCell>
        <mxCell id="fJvDgkGEsmQ1cLDRvCxi-52" value="user_profile_id: BIGINT" style="shape=partialRectangle;connectable=0;fillColor=none;top=0;left=0;bottom=0;right=0;align=left;spacingLeft=6;overflow=hidden;whiteSpace=wrap;html=1;" parent="fJvDgkGEsmQ1cLDRvCxi-50" vertex="1">
          <mxGeometry x="30" width="150" height="31" as="geometry">
            <mxRectangle width="150" height="31" as="alternateBounds" />
          </mxGeometry>
        </mxCell>
        <mxCell id="fJvDgkGEsmQ1cLDRvCxi-73" value="service-provider" style="shape=table;startSize=30;container=1;collapsible=1;childLayout=tableLayout;fixedRows=1;rowLines=0;fontStyle=1;align=center;resizeLast=1;html=1;" parent="1" vertex="1">
          <mxGeometry x="1731" y="1626" width="270" height="246" as="geometry" />
        </mxCell>
        <mxCell id="fJvDgkGEsmQ1cLDRvCxi-74" value="" style="shape=tableRow;horizontal=0;startSize=0;swimlaneHead=0;swimlaneBody=0;fillColor=none;collapsible=0;dropTarget=0;points=[[0,0.5],[1,0.5]];portConstraint=eastwest;top=0;left=0;right=0;bottom=1;" parent="fJvDgkGEsmQ1cLDRvCxi-73" vertex="1">
          <mxGeometry y="30" width="270" height="30" as="geometry" />
        </mxCell>
        <mxCell id="fJvDgkGEsmQ1cLDRvCxi-75" value="PK" style="shape=partialRectangle;connectable=0;fillColor=none;top=0;left=0;bottom=0;right=0;fontStyle=1;overflow=hidden;whiteSpace=wrap;html=1;" parent="fJvDgkGEsmQ1cLDRvCxi-74" vertex="1">
          <mxGeometry width="70" height="30" as="geometry">
            <mxRectangle width="70" height="30" as="alternateBounds" />
          </mxGeometry>
        </mxCell>
        <mxCell id="fJvDgkGEsmQ1cLDRvCxi-76" value="ID:BIGINT" style="shape=partialRectangle;connectable=0;fillColor=none;top=0;left=0;bottom=0;right=0;align=left;spacingLeft=6;fontStyle=5;overflow=hidden;whiteSpace=wrap;html=1;" parent="fJvDgkGEsmQ1cLDRvCxi-74" vertex="1">
          <mxGeometry x="70" width="200" height="30" as="geometry">
            <mxRectangle width="200" height="30" as="alternateBounds" />
          </mxGeometry>
        </mxCell>
        <mxCell id="fJvDgkGEsmQ1cLDRvCxi-77" value="" style="shape=tableRow;horizontal=0;startSize=0;swimlaneHead=0;swimlaneBody=0;fillColor=none;collapsible=0;dropTarget=0;points=[[0,0.5],[1,0.5]];portConstraint=eastwest;top=0;left=0;right=0;bottom=0;" parent="fJvDgkGEsmQ1cLDRvCxi-73" vertex="1">
          <mxGeometry y="60" width="270" height="31" as="geometry" />
        </mxCell>
        <mxCell id="fJvDgkGEsmQ1cLDRvCxi-78" value="FK" style="shape=partialRectangle;connectable=0;fillColor=none;top=0;left=0;bottom=0;right=0;editable=1;overflow=hidden;whiteSpace=wrap;html=1;" parent="fJvDgkGEsmQ1cLDRvCxi-77" vertex="1">
          <mxGeometry width="70" height="31" as="geometry">
            <mxRectangle width="70" height="31" as="alternateBounds" />
          </mxGeometry>
        </mxCell>
        <mxCell id="fJvDgkGEsmQ1cLDRvCxi-79" value="user_profile_id: BIGINT" style="shape=partialRectangle;connectable=0;fillColor=none;top=0;left=0;bottom=0;right=0;align=left;spacingLeft=6;overflow=hidden;whiteSpace=wrap;html=1;" parent="fJvDgkGEsmQ1cLDRvCxi-77" vertex="1">
          <mxGeometry x="70" width="200" height="31" as="geometry">
            <mxRectangle width="200" height="31" as="alternateBounds" />
          </mxGeometry>
        </mxCell>
        <mxCell id="fJvDgkGEsmQ1cLDRvCxi-80" style="shape=tableRow;horizontal=0;startSize=0;swimlaneHead=0;swimlaneBody=0;fillColor=none;collapsible=0;dropTarget=0;points=[[0,0.5],[1,0.5]];portConstraint=eastwest;top=0;left=0;right=0;bottom=0;" parent="fJvDgkGEsmQ1cLDRvCxi-73" vertex="1">
          <mxGeometry y="91" width="270" height="31" as="geometry" />
        </mxCell>
        <mxCell id="fJvDgkGEsmQ1cLDRvCxi-81" value="VARCHAR" style="shape=partialRectangle;connectable=0;fillColor=none;top=0;left=0;bottom=0;right=0;editable=1;overflow=hidden;whiteSpace=wrap;html=1;" parent="fJvDgkGEsmQ1cLDRvCxi-80" vertex="1">
          <mxGeometry width="70" height="31" as="geometry">
            <mxRectangle width="70" height="31" as="alternateBounds" />
          </mxGeometry>
        </mxCell>
        <mxCell id="fJvDgkGEsmQ1cLDRvCxi-82" value="education" style="shape=partialRectangle;connectable=0;fillColor=none;top=0;left=0;bottom=0;right=0;align=left;spacingLeft=6;overflow=hidden;whiteSpace=wrap;html=1;" parent="fJvDgkGEsmQ1cLDRvCxi-80" vertex="1">
          <mxGeometry x="70" width="200" height="31" as="geometry">
            <mxRectangle width="200" height="31" as="alternateBounds" />
          </mxGeometry>
        </mxCell>
        <mxCell id="fJvDgkGEsmQ1cLDRvCxi-86" style="shape=tableRow;horizontal=0;startSize=0;swimlaneHead=0;swimlaneBody=0;fillColor=none;collapsible=0;dropTarget=0;points=[[0,0.5],[1,0.5]];portConstraint=eastwest;top=0;left=0;right=0;bottom=0;" parent="fJvDgkGEsmQ1cLDRvCxi-73" vertex="1">
          <mxGeometry y="122" width="270" height="31" as="geometry" />
        </mxCell>
        <mxCell id="fJvDgkGEsmQ1cLDRvCxi-87" value="VARCHAR" style="shape=partialRectangle;connectable=0;fillColor=none;top=0;left=0;bottom=0;right=0;editable=1;overflow=hidden;whiteSpace=wrap;html=1;" parent="fJvDgkGEsmQ1cLDRvCxi-86" vertex="1">
          <mxGeometry width="70" height="31" as="geometry">
            <mxRectangle width="70" height="31" as="alternateBounds" />
          </mxGeometry>
        </mxCell>
        <mxCell id="fJvDgkGEsmQ1cLDRvCxi-88" value="certifications" style="shape=partialRectangle;connectable=0;fillColor=none;top=0;left=0;bottom=0;right=0;align=left;spacingLeft=6;overflow=hidden;whiteSpace=wrap;html=1;" parent="fJvDgkGEsmQ1cLDRvCxi-86" vertex="1">
          <mxGeometry x="70" width="200" height="31" as="geometry">
            <mxRectangle width="200" height="31" as="alternateBounds" />
          </mxGeometry>
        </mxCell>
        <mxCell id="fJvDgkGEsmQ1cLDRvCxi-89" style="shape=tableRow;horizontal=0;startSize=0;swimlaneHead=0;swimlaneBody=0;fillColor=none;collapsible=0;dropTarget=0;points=[[0,0.5],[1,0.5]];portConstraint=eastwest;top=0;left=0;right=0;bottom=0;" parent="fJvDgkGEsmQ1cLDRvCxi-73" vertex="1">
          <mxGeometry y="153" width="270" height="31" as="geometry" />
        </mxCell>
        <mxCell id="fJvDgkGEsmQ1cLDRvCxi-90" value="TEXT" style="shape=partialRectangle;connectable=0;fillColor=none;top=0;left=0;bottom=0;right=0;editable=1;overflow=hidden;whiteSpace=wrap;html=1;" parent="fJvDgkGEsmQ1cLDRvCxi-89" vertex="1">
          <mxGeometry width="70" height="31" as="geometry">
            <mxRectangle width="70" height="31" as="alternateBounds" />
          </mxGeometry>
        </mxCell>
        <mxCell id="fJvDgkGEsmQ1cLDRvCxi-91" value="experience_descriptions" style="shape=partialRectangle;connectable=0;fillColor=none;top=0;left=0;bottom=0;right=0;align=left;spacingLeft=6;overflow=hidden;whiteSpace=wrap;html=1;" parent="fJvDgkGEsmQ1cLDRvCxi-89" vertex="1">
          <mxGeometry x="70" width="200" height="31" as="geometry">
            <mxRectangle width="200" height="31" as="alternateBounds" />
          </mxGeometry>
        </mxCell>
        <mxCell id="fJvDgkGEsmQ1cLDRvCxi-92" style="shape=tableRow;horizontal=0;startSize=0;swimlaneHead=0;swimlaneBody=0;fillColor=none;collapsible=0;dropTarget=0;points=[[0,0.5],[1,0.5]];portConstraint=eastwest;top=0;left=0;right=0;bottom=0;" parent="fJvDgkGEsmQ1cLDRvCxi-73" vertex="1">
          <mxGeometry y="184" width="270" height="31" as="geometry" />
        </mxCell>
        <mxCell id="fJvDgkGEsmQ1cLDRvCxi-93" value="VARCHAR" style="shape=partialRectangle;connectable=0;fillColor=none;top=0;left=0;bottom=0;right=0;editable=1;overflow=hidden;whiteSpace=wrap;html=1;" parent="fJvDgkGEsmQ1cLDRvCxi-92" vertex="1">
          <mxGeometry width="70" height="31" as="geometry">
            <mxRectangle width="70" height="31" as="alternateBounds" />
          </mxGeometry>
        </mxCell>
        <mxCell id="fJvDgkGEsmQ1cLDRvCxi-94" value="work_schedule" style="shape=partialRectangle;connectable=0;fillColor=none;top=0;left=0;bottom=0;right=0;align=left;spacingLeft=6;overflow=hidden;whiteSpace=wrap;html=1;" parent="fJvDgkGEsmQ1cLDRvCxi-92" vertex="1">
          <mxGeometry x="70" width="200" height="31" as="geometry">
            <mxRectangle width="200" height="31" as="alternateBounds" />
          </mxGeometry>
        </mxCell>
        <mxCell id="fJvDgkGEsmQ1cLDRvCxi-98" style="shape=tableRow;horizontal=0;startSize=0;swimlaneHead=0;swimlaneBody=0;fillColor=none;collapsible=0;dropTarget=0;points=[[0,0.5],[1,0.5]];portConstraint=eastwest;top=0;left=0;right=0;bottom=0;" parent="fJvDgkGEsmQ1cLDRvCxi-73" vertex="1">
          <mxGeometry y="215" width="270" height="31" as="geometry" />
        </mxCell>
        <mxCell id="fJvDgkGEsmQ1cLDRvCxi-99" value="TINYINT" style="shape=partialRectangle;connectable=0;fillColor=none;top=0;left=0;bottom=0;right=0;editable=1;overflow=hidden;whiteSpace=wrap;html=1;" parent="fJvDgkGEsmQ1cLDRvCxi-98" vertex="1">
          <mxGeometry width="70" height="31" as="geometry">
            <mxRectangle width="70" height="31" as="alternateBounds" />
          </mxGeometry>
        </mxCell>
        <mxCell id="fJvDgkGEsmQ1cLDRvCxi-100" value="covarage_area" style="shape=partialRectangle;connectable=0;fillColor=none;top=0;left=0;bottom=0;right=0;align=left;spacingLeft=6;overflow=hidden;whiteSpace=wrap;html=1;" parent="fJvDgkGEsmQ1cLDRvCxi-98" vertex="1">
          <mxGeometry x="70" width="200" height="31" as="geometry">
            <mxRectangle width="200" height="31" as="alternateBounds" />
          </mxGeometry>
        </mxCell>
        <mxCell id="crXB8hbRIwwjcSzF-EqF-3" value="" style="endArrow=classic;startArrow=classic;html=1;rounded=0;entryX=0;entryY=0.5;entryDx=0;entryDy=0;exitX=1;exitY=0.5;exitDx=0;exitDy=0;" parent="1" source="crXB8hbRIwwjcSzF-EqF-19" target="crXB8hbRIwwjcSzF-EqF-18" edge="1">
          <mxGeometry width="50" height="50" relative="1" as="geometry">
            <mxPoint x="150" y="817" as="sourcePoint" />
            <mxPoint x="380" y="821" as="targetPoint" />
          </mxGeometry>
        </mxCell>
        <mxCell id="crXB8hbRIwwjcSzF-EqF-4" value="Text" style="edgeLabel;html=1;align=center;verticalAlign=middle;resizable=0;points=[];" parent="crXB8hbRIwwjcSzF-EqF-3" vertex="1" connectable="0">
          <mxGeometry x="0.0005" y="1" relative="1" as="geometry">
            <mxPoint as="offset" />
          </mxGeometry>
        </mxCell>
        <mxCell id="crXB8hbRIwwjcSzF-EqF-6" value="&lt;span style=&quot;font-size: 12px;&quot;&gt;HTTP/1.1&lt;/span&gt;&lt;div style=&quot;font-size: 12px;&quot;&gt;application/grpc-web&lt;/div&gt;" style="edgeLabel;html=1;align=center;verticalAlign=middle;resizable=0;points=[];" parent="crXB8hbRIwwjcSzF-EqF-3" vertex="1" connectable="0">
          <mxGeometry x="-0.0059" y="2" relative="1" as="geometry">
            <mxPoint y="1" as="offset" />
          </mxGeometry>
        </mxCell>
        <mxCell id="crXB8hbRIwwjcSzF-EqF-7" value="" style="endArrow=classic;startArrow=classic;html=1;rounded=0;entryX=0.5;entryY=1;entryDx=0;entryDy=0;exitX=0.5;exitY=0;exitDx=0;exitDy=0;exitPerimeter=0;" parent="1" source="ScuUsJSq9s-L0LrTq36s-16" target="ScuUsJSq9s-L0LrTq36s-14" edge="1">
          <mxGeometry width="50" height="50" relative="1" as="geometry">
            <mxPoint x="1036" y="1063" as="sourcePoint" />
            <mxPoint x="1090" y="1013" as="targetPoint" />
          </mxGeometry>
        </mxCell>
        <mxCell id="crXB8hbRIwwjcSzF-EqF-37" value="user-auth" style="edgeLabel;html=1;align=center;verticalAlign=middle;resizable=0;points=[];" parent="crXB8hbRIwwjcSzF-EqF-7" vertex="1" connectable="0">
          <mxGeometry x="-0.1833" y="-1" relative="1" as="geometry">
            <mxPoint as="offset" />
          </mxGeometry>
        </mxCell>
        <mxCell id="crXB8hbRIwwjcSzF-EqF-9" value="" style="endArrow=classic;startArrow=classic;html=1;rounded=0;entryX=0;entryY=1;entryDx=0;entryDy=0;exitX=1;exitY=1;exitDx=0;exitDy=0;" parent="1" source="crXB8hbRIwwjcSzF-EqF-19" target="ScuUsJSq9s-L0LrTq36s-14" edge="1">
          <mxGeometry width="50" height="50" relative="1" as="geometry">
            <mxPoint x="131.24202918298306" y="854.9941267664087" as="sourcePoint" />
            <mxPoint x="600" y="1003" as="targetPoint" />
            <Array as="points">
              <mxPoint x="520" y="1067" />
            </Array>
          </mxGeometry>
        </mxCell>
        <mxCell id="crXB8hbRIwwjcSzF-EqF-11" value="WebSocket&lt;div&gt;registration-confirmation&lt;/div&gt;" style="edgeLabel;html=1;align=center;verticalAlign=middle;resizable=0;points=[];" parent="crXB8hbRIwwjcSzF-EqF-9" vertex="1" connectable="0">
          <mxGeometry x="0.4947" y="1" relative="1" as="geometry">
            <mxPoint x="-232" y="29" as="offset" />
          </mxGeometry>
        </mxCell>
        <mxCell id="crXB8hbRIwwjcSzF-EqF-13" value="" style="endArrow=classic;startArrow=classic;html=1;rounded=0;exitX=1;exitY=0;exitDx=0;exitDy=0;entryX=0;entryY=1;entryDx=0;entryDy=0;" parent="1" source="ScuUsJSq9s-L0LrTq36s-14" target="2FqLa4DTJuIObJsq9_Xk-10" edge="1">
          <mxGeometry width="50" height="50" relative="1" as="geometry">
            <mxPoint x="1113" y="918" as="sourcePoint" />
            <mxPoint x="1163" y="868" as="targetPoint" />
          </mxGeometry>
        </mxCell>
        <mxCell id="crXB8hbRIwwjcSzF-EqF-14" value="user-profile-data" style="edgeLabel;html=1;align=center;verticalAlign=middle;resizable=0;points=[];" parent="crXB8hbRIwwjcSzF-EqF-13" vertex="1" connectable="0">
          <mxGeometry x="0.0109" relative="1" as="geometry">
            <mxPoint as="offset" />
          </mxGeometry>
        </mxCell>
        <mxCell id="crXB8hbRIwwjcSzF-EqF-17" value="" style="endArrow=none;dashed=1;html=1;dashPattern=1 3;strokeWidth=2;rounded=0;exitX=0.427;exitY=0.008;exitDx=0;exitDy=0;exitPerimeter=0;" parent="1" edge="1">
          <mxGeometry width="50" height="50" relative="1" as="geometry">
            <mxPoint x="1035.7900000000002" y="883" as="sourcePoint" />
            <mxPoint x="1036" y="777" as="targetPoint" />
          </mxGeometry>
        </mxCell>
        <mxCell id="crXB8hbRIwwjcSzF-EqF-18" value="&lt;font style=&quot;font-size: 15px;&quot;&gt;&lt;b&gt;Reverse Proxy&lt;/b&gt;&lt;/font&gt;&lt;div&gt;&lt;font style=&quot;font-size: 14px;&quot;&gt;&lt;i&gt;Nginx&lt;/i&gt;&lt;/font&gt;&lt;/div&gt;" style="ellipse;whiteSpace=wrap;html=1;" parent="1" vertex="1">
          <mxGeometry x="384" y="768" width="146" height="100" as="geometry" />
        </mxCell>
        <mxCell id="crXB8hbRIwwjcSzF-EqF-19" value="&lt;div&gt;&lt;span style=&quot;font-size: 15px;&quot;&gt;&lt;b&gt;Client UI&lt;/b&gt;&lt;/span&gt;&lt;/div&gt;&lt;div&gt;&lt;font style=&quot;font-size: 14px;&quot;&gt;&lt;i&gt;React | gRPC Client&lt;/i&gt;&lt;/font&gt;&lt;/div&gt;" style="ellipse;whiteSpace=wrap;html=1;" parent="1" vertex="1">
          <mxGeometry x="10" y="766.5" width="135" height="103" as="geometry" />
        </mxCell>
        <mxCell id="crXB8hbRIwwjcSzF-EqF-20" value="" style="endArrow=none;dashed=1;html=1;dashPattern=1 3;strokeWidth=2;rounded=0;exitX=1;exitY=0;exitDx=0;exitDy=0;" parent="1" source="crXB8hbRIwwjcSzF-EqF-18" edge="1">
          <mxGeometry width="50" height="50" relative="1" as="geometry">
            <mxPoint x="620" y="856" as="sourcePoint" />
            <mxPoint x="640" y="720" as="targetPoint" />
          </mxGeometry>
        </mxCell>
        <mxCell id="crXB8hbRIwwjcSzF-EqF-21" value="1-to-1" style="edgeStyle=entityRelationEdgeStyle;fontSize=12;html=1;endArrow=ERmandOne;startArrow=ERmandOne;rounded=0;exitX=1;exitY=0.5;exitDx=0;exitDy=0;entryX=0;entryY=0.5;entryDx=0;entryDy=0;" parent="1" source="2FqLa4DTJuIObJsq9_Xk-31" target="fJvDgkGEsmQ1cLDRvCxi-47" edge="1">
          <mxGeometry width="100" height="100" relative="1" as="geometry">
            <mxPoint x="1439" y="1536" as="sourcePoint" />
            <mxPoint x="1539" y="1436" as="targetPoint" />
          </mxGeometry>
        </mxCell>
        <mxCell id="crXB8hbRIwwjcSzF-EqF-22" value="" style="edgeStyle=entityRelationEdgeStyle;fontSize=12;html=1;endArrow=ERmandOne;startArrow=ERmandOne;rounded=0;entryX=0;entryY=0.5;entryDx=0;entryDy=0;" parent="1" target="fJvDgkGEsmQ1cLDRvCxi-74" edge="1">
          <mxGeometry width="100" height="100" relative="1" as="geometry">
            <mxPoint x="1401" y="1521" as="sourcePoint" />
            <mxPoint x="1871" y="1506" as="targetPoint" />
            <Array as="points">
              <mxPoint x="1701" y="1566" />
            </Array>
          </mxGeometry>
        </mxCell>
        <mxCell id="crXB8hbRIwwjcSzF-EqF-23" value="&lt;span style=&quot;color: rgba(0, 0, 0, 0); font-family: monospace; font-size: 0px; text-align: start; background-color: rgb(236, 236, 236);&quot;&gt;%3CmxGraphModel%3E%3Croot%3E%3CmxCell%20id%3D%220%22%2F%3E%3CmxCell%20id%3D%221%22%20parent%3D%220%22%2F%3E%3CmxCell%20id%3D%222%22%20value%3D%221-to-1%22%20style%3D%22edgeStyle%3DentityRelationEdgeStyle%3BfontSize%3D12%3Bhtml%3D1%3BendArrow%3DERmandOne%3BstartArrow%3DERmandOne%3Brounded%3D0%3BexitX%3D1%3BexitY%3D0.5%3BexitDx%3D0%3BexitDy%3D0%3BentryX%3D0%3BentryY%3D0.5%3BentryDx%3D0%3BentryDy%3D0%3B%22%20edge%3D%221%22%20parent%3D%221%22%3E%3CmxGeometry%20width%3D%22100%22%20height%3D%22100%22%20relative%3D%221%22%20as%3D%22geometry%22%3E%3CmxPoint%20x%3D%221400%22%20y%3D%221615%22%20as%3D%22sourcePoint%22%2F%3E%3CmxPoint%20x%3D%221730%22%20y%3D%221515%22%20as%3D%22targetPoint%22%2F%3E%3C%2FmxGeometry%3E%3C%2FmxCell%3E%3C%2Froot%3E%3C%2FmxGraphModel%3E&lt;/span&gt;" style="edgeLabel;html=1;align=center;verticalAlign=middle;resizable=0;points=[];" parent="crXB8hbRIwwjcSzF-EqF-22" vertex="1" connectable="0">
          <mxGeometry x="0.0068" y="-3" relative="1" as="geometry">
            <mxPoint x="-1" as="offset" />
          </mxGeometry>
        </mxCell>
        <mxCell id="crXB8hbRIwwjcSzF-EqF-24" value="1-to-1" style="edgeLabel;html=1;align=center;verticalAlign=middle;resizable=0;points=[];" parent="crXB8hbRIwwjcSzF-EqF-22" vertex="1" connectable="0">
          <mxGeometry x="0.0121" relative="1" as="geometry">
            <mxPoint as="offset" />
          </mxGeometry>
        </mxCell>
        <mxCell id="crXB8hbRIwwjcSzF-EqF-27" value="" style="endArrow=classic;startArrow=classic;html=1;rounded=0;exitX=1;exitY=1;exitDx=0;exitDy=0;entryX=0.051;entryY=0.31;entryDx=0;entryDy=0;entryPerimeter=0;" parent="1" source="crXB8hbRIwwjcSzF-EqF-36" target="2FqLa4DTJuIObJsq9_Xk-20" edge="1">
          <mxGeometry width="50" height="50" relative="1" as="geometry">
            <mxPoint x="696.4225639498454" y="1481.9055059643638" as="sourcePoint" />
            <mxPoint x="814" y="1502" as="targetPoint" />
          </mxGeometry>
        </mxCell>
        <mxCell id="crXB8hbRIwwjcSzF-EqF-28" value="user-profile-confirmation" style="edgeLabel;html=1;align=center;verticalAlign=middle;resizable=0;points=[];" parent="crXB8hbRIwwjcSzF-EqF-27" vertex="1" connectable="0">
          <mxGeometry x="0.224" y="-1" relative="1" as="geometry">
            <mxPoint x="-12" y="-6" as="offset" />
          </mxGeometry>
        </mxCell>
        <mxCell id="crXB8hbRIwwjcSzF-EqF-30" value="" style="endArrow=classic;startArrow=classic;html=1;rounded=0;entryX=0;entryY=0.5;entryDx=0;entryDy=0;exitX=1;exitY=0.5;exitDx=0;exitDy=0;entryPerimeter=0;" parent="1" source="crXB8hbRIwwjcSzF-EqF-36" target="2FqLa4DTJuIObJsq9_Xk-18" edge="1">
          <mxGeometry width="50" height="50" relative="1" as="geometry">
            <mxPoint x="724.000000000005" y="1434" as="sourcePoint" />
            <mxPoint x="835" y="1434" as="targetPoint" />
          </mxGeometry>
        </mxCell>
        <mxCell id="crXB8hbRIwwjcSzF-EqF-41" value="user-management" style="edgeLabel;html=1;align=center;verticalAlign=middle;resizable=0;points=[];" parent="crXB8hbRIwwjcSzF-EqF-30" vertex="1" connectable="0">
          <mxGeometry x="-0.074" y="-3" relative="1" as="geometry">
            <mxPoint x="5" y="-4" as="offset" />
          </mxGeometry>
        </mxCell>
        <mxCell id="crXB8hbRIwwjcSzF-EqF-33" value="" style="endArrow=none;dashed=1;html=1;dashPattern=1 3;strokeWidth=2;rounded=0;entryX=0.5;entryY=1;entryDx=0;entryDy=0;" parent="1" target="crXB8hbRIwwjcSzF-EqF-36" edge="1">
          <mxGeometry width="50" height="50" relative="1" as="geometry">
            <mxPoint x="592" y="1690" as="sourcePoint" />
            <mxPoint x="629" y="1502" as="targetPoint" />
          </mxGeometry>
        </mxCell>
        <mxCell id="crXB8hbRIwwjcSzF-EqF-35" value="jwt-validation" style="edgeLabel;html=1;align=center;verticalAlign=middle;resizable=0;points=[];" parent="crXB8hbRIwwjcSzF-EqF-33" vertex="1" connectable="0">
          <mxGeometry x="-0.0133" y="-1" relative="1" as="geometry">
            <mxPoint as="offset" />
          </mxGeometry>
        </mxCell>
        <mxCell id="crXB8hbRIwwjcSzF-EqF-36" value="&lt;font style=&quot;font-size: 15px;&quot;&gt;&lt;b&gt;UserManagementMicroservice&lt;br&gt;&lt;/b&gt;&lt;/font&gt;&lt;div&gt;&lt;i&gt;ASP.NET Core Web API | gRPC Client&lt;/i&gt;&lt;/div&gt;" style="ellipse;whiteSpace=wrap;html=1;" parent="1" vertex="1">
          <mxGeometry x="477" y="1373" width="230" height="122.5" as="geometry" />
        </mxCell>
        <mxCell id="crXB8hbRIwwjcSzF-EqF-38" value="&lt;b&gt;&lt;font style=&quot;font-size: 15px;&quot;&gt;DB&lt;/font&gt;&lt;/b&gt;&lt;div&gt;&lt;font style=&quot;font-size: 14px;&quot;&gt;&lt;i style=&quot;&quot;&gt;Redis&lt;/i&gt;&lt;/font&gt;&lt;/div&gt;" style="shape=cylinder3;whiteSpace=wrap;html=1;boundedLbl=1;backgroundOutline=1;size=15;" parent="1" vertex="1">
          <mxGeometry x="1100" y="1063" width="64" height="90" as="geometry" />
        </mxCell>
        <mxCell id="crXB8hbRIwwjcSzF-EqF-39" value="" style="endArrow=classic;startArrow=classic;html=1;rounded=0;entryX=0.5;entryY=1;entryDx=0;entryDy=0;exitX=0.145;exitY=0;exitDx=0;exitDy=4.35;exitPerimeter=0;" parent="1" source="crXB8hbRIwwjcSzF-EqF-38" target="ScuUsJSq9s-L0LrTq36s-14" edge="1">
          <mxGeometry width="50" height="50" relative="1" as="geometry">
            <mxPoint x="1090" y="1070" as="sourcePoint" />
            <mxPoint x="1168" y="1040" as="targetPoint" />
          </mxGeometry>
        </mxCell>
        <mxCell id="crXB8hbRIwwjcSzF-EqF-40" value="user-auth-saga" style="edgeLabel;html=1;align=center;verticalAlign=middle;resizable=0;points=[];" parent="crXB8hbRIwwjcSzF-EqF-39" vertex="1" connectable="0">
          <mxGeometry x="-0.1833" y="-1" relative="1" as="geometry">
            <mxPoint as="offset" />
          </mxGeometry>
        </mxCell>
        <mxCell id="crXB8hbRIwwjcSzF-EqF-42" value="" style="endArrow=classic;startArrow=classic;html=1;rounded=0;exitX=1;exitY=0.5;exitDx=0;exitDy=0;entryX=0;entryY=0.5;entryDx=0;entryDy=0;entryPerimeter=0;" parent="1" source="2FqLa4DTJuIObJsq9_Xk-1" target="2FqLa4DTJuIObJsq9_Xk-3" edge="1">
          <mxGeometry width="50" height="50" relative="1" as="geometry">
            <mxPoint x="1023" y="140" as="sourcePoint" />
            <mxPoint x="1073" y="90" as="targetPoint" />
          </mxGeometry>
        </mxCell>
        <mxCell id="crXB8hbRIwwjcSzF-EqF-43" value="" style="endArrow=classic;startArrow=classic;html=1;rounded=0;entryX=0.5;entryY=1;entryDx=0;entryDy=0;exitX=0.5;exitY=0;exitDx=0;exitDy=0;" parent="1" source="8nA0Rh1-UXfHZlDTwRZV-19" target="2FqLa4DTJuIObJsq9_Xk-1" edge="1">
          <mxGeometry width="50" height="50" relative="1" as="geometry">
            <mxPoint x="820" y="320" as="sourcePoint" />
            <mxPoint x="970" y="270" as="targetPoint" />
          </mxGeometry>
        </mxCell>
        <mxCell id="crXB8hbRIwwjcSzF-EqF-46" value="&lt;b&gt;&lt;font style=&quot;font-size: 15px;&quot;&gt;DB&lt;/font&gt;&lt;/b&gt;&lt;div&gt;&lt;font style=&quot;font-size: 14px;&quot;&gt;&lt;i style=&quot;&quot;&gt;MariaDB&lt;/i&gt;&lt;/font&gt;&lt;/div&gt;" style="shape=cylinder3;whiteSpace=wrap;html=1;boundedLbl=1;backgroundOutline=1;size=15;" parent="1" vertex="1">
          <mxGeometry x="800" y="548" width="64" height="90" as="geometry" />
        </mxCell>
        <mxCell id="crXB8hbRIwwjcSzF-EqF-47" value="" style="endArrow=classic;startArrow=classic;html=1;rounded=0;exitX=0.5;exitY=0;exitDx=0;exitDy=0;exitPerimeter=0;entryX=0.5;entryY=1;entryDx=0;entryDy=0;" parent="1" source="crXB8hbRIwwjcSzF-EqF-46" target="8nA0Rh1-UXfHZlDTwRZV-19" edge="1">
          <mxGeometry width="50" height="50" relative="1" as="geometry">
            <mxPoint x="907" y="548" as="sourcePoint" />
            <mxPoint x="860" y="500" as="targetPoint" />
          </mxGeometry>
        </mxCell>
        <mxCell id="crXB8hbRIwwjcSzF-EqF-49" value="&lt;b&gt;&lt;font style=&quot;font-size: 15px;&quot;&gt;DB&lt;/font&gt;&lt;/b&gt;&lt;div&gt;&lt;font style=&quot;font-size: 14px;&quot;&gt;&lt;i style=&quot;&quot;&gt;Redis&lt;/i&gt;&lt;/font&gt;&lt;/div&gt;" style="shape=cylinder3;whiteSpace=wrap;html=1;boundedLbl=1;backgroundOutline=1;size=15;" parent="1" vertex="1">
          <mxGeometry x="971" y="548" width="64" height="90" as="geometry" />
        </mxCell>
        <mxCell id="crXB8hbRIwwjcSzF-EqF-50" value="" style="endArrow=classic;startArrow=classic;html=1;rounded=0;exitX=0.145;exitY=0;exitDx=0;exitDy=4.35;exitPerimeter=0;entryX=0.5;entryY=1;entryDx=0;entryDy=0;" parent="1" source="crXB8hbRIwwjcSzF-EqF-49" target="8nA0Rh1-UXfHZlDTwRZV-19" edge="1">
          <mxGeometry width="50" height="50" relative="1" as="geometry">
            <mxPoint x="961" y="555" as="sourcePoint" />
            <mxPoint x="907" y="530" as="targetPoint" />
          </mxGeometry>
        </mxCell>
        <mxCell id="crXB8hbRIwwjcSzF-EqF-52" value="" style="endArrow=classic;startArrow=classic;html=1;rounded=0;entryX=0;entryY=1;entryDx=0;entryDy=0;exitX=0.5;exitY=1;exitDx=0;exitDy=0;" parent="1" source="8nA0Rh1-UXfHZlDTwRZV-1" target="8nA0Rh1-UXfHZlDTwRZV-19" edge="1">
          <mxGeometry width="50" height="50" relative="1" as="geometry">
            <mxPoint x="450" y="560" as="sourcePoint" />
            <mxPoint x="500" y="510" as="targetPoint" />
            <Array as="points">
              <mxPoint x="360" y="560" />
            </Array>
          </mxGeometry>
        </mxCell>
        <mxCell id="nExQPK7tHjRJVye-uC_C-5" value="&lt;font style=&quot;forced-color-adjust: none; color: rgb(0, 0, 0); font-family: Helvetica; font-size: 20px; font-style: normal; font-variant-ligatures: normal; font-variant-caps: normal; font-weight: 400; letter-spacing: normal; orphans: 2; text-align: center; text-indent: 0px; text-transform: none; widows: 2; word-spacing: 0px; -webkit-text-stroke-width: 0px; white-space: normal; background-color: rgb(236, 236, 236); text-decoration-thickness: initial; text-decoration-style: initial; text-decoration-color: initial;&quot;&gt;&lt;i style=&quot;forced-color-adjust: none;&quot;&gt;&lt;u style=&quot;forced-color-adjust: none;&quot;&gt;Diagrama de activitate pentru procesul de autentificare și acces bazat pe tokenuri&lt;/u&gt;&lt;/i&gt;&lt;/font&gt;" style="text;whiteSpace=wrap;html=1;" parent="1" vertex="1">
          <mxGeometry x="100" y="1940" width="400" height="50" as="geometry" />
        </mxCell>
        <mxCell id="nExQPK7tHjRJVye-uC_C-57" style="edgeStyle=orthogonalEdgeStyle;rounded=0;orthogonalLoop=1;jettySize=auto;html=1;entryX=0.5;entryY=0;entryDx=0;entryDy=0;" parent="1" source="nExQPK7tHjRJVye-uC_C-6" target="nExQPK7tHjRJVye-uC_C-8" edge="1">
          <mxGeometry relative="1" as="geometry" />
        </mxCell>
        <mxCell id="nExQPK7tHjRJVye-uC_C-6" value="" style="ellipse;html=1;shape=startState;fillColor=#000000;strokeColor=default;" parent="1" vertex="1">
          <mxGeometry x="500" y="2040" width="30" height="30" as="geometry" />
        </mxCell>
        <mxCell id="nExQPK7tHjRJVye-uC_C-133" style="edgeStyle=orthogonalEdgeStyle;rounded=0;orthogonalLoop=1;jettySize=auto;html=1;exitX=0.5;exitY=1;exitDx=0;exitDy=0;" parent="1" source="nExQPK7tHjRJVye-uC_C-8" target="nExQPK7tHjRJVye-uC_C-14" edge="1">
          <mxGeometry relative="1" as="geometry" />
        </mxCell>
        <mxCell id="nExQPK7tHjRJVye-uC_C-8" value="&lt;font style=&quot;font-size: 11px;&quot;&gt;User-ul acceseaza Home page&lt;/font&gt;" style="rounded=1;whiteSpace=wrap;html=1;arcSize=40;fontColor=#000000;fillColor=#FFFFFF;strokeColor=#000000;" parent="1" vertex="1">
          <mxGeometry x="455" y="2110" width="120" height="40" as="geometry" />
        </mxCell>
        <mxCell id="nExQPK7tHjRJVye-uC_C-118" style="edgeStyle=orthogonalEdgeStyle;rounded=0;orthogonalLoop=1;jettySize=auto;html=1;exitX=0.5;exitY=1;exitDx=0;exitDy=0;entryX=0.5;entryY=0;entryDx=0;entryDy=0;" parent="1" source="nExQPK7tHjRJVye-uC_C-14" target="nExQPK7tHjRJVye-uC_C-117" edge="1">
          <mxGeometry relative="1" as="geometry" />
        </mxCell>
        <mxCell id="nExQPK7tHjRJVye-uC_C-14" value="&lt;font style=&quot;font-size: 11px;&quot;&gt;Trimite RefreshTokenRequest&lt;/font&gt;" style="rounded=1;whiteSpace=wrap;html=1;arcSize=40;fontColor=#000000;fillColor=#FFFFFF;strokeColor=#000000;align=center;verticalAlign=middle;fontFamily=Helvetica;fontSize=12;" parent="1" vertex="1">
          <mxGeometry x="455" y="2205" width="120" height="40" as="geometry" />
        </mxCell>
        <mxCell id="nExQPK7tHjRJVye-uC_C-17" value="user-auth-ms" style="shape=umlFrame;whiteSpace=wrap;html=1;pointerEvents=0;width=105;height=40;" parent="1" vertex="1">
          <mxGeometry x="330" y="2185" width="390" height="305" as="geometry" />
        </mxCell>
        <mxCell id="nExQPK7tHjRJVye-uC_C-131" style="edgeStyle=orthogonalEdgeStyle;rounded=0;orthogonalLoop=1;jettySize=auto;html=1;exitX=1;exitY=0.5;exitDx=0;exitDy=0;" parent="1" source="nExQPK7tHjRJVye-uC_C-22" target="nExQPK7tHjRJVye-uC_C-48" edge="1">
          <mxGeometry relative="1" as="geometry" />
        </mxCell>
        <mxCell id="nExQPK7tHjRJVye-uC_C-132" value="nu" style="edgeLabel;html=1;align=center;verticalAlign=middle;resizable=0;points=[];" parent="nExQPK7tHjRJVye-uC_C-131" vertex="1" connectable="0">
          <mxGeometry x="-0.8808" y="3" relative="1" as="geometry">
            <mxPoint x="-26" y="-10" as="offset" />
          </mxGeometry>
        </mxCell>
        <mxCell id="nExQPK7tHjRJVye-uC_C-140" style="edgeStyle=orthogonalEdgeStyle;rounded=0;orthogonalLoop=1;jettySize=auto;html=1;exitX=0.5;exitY=1;exitDx=0;exitDy=0;entryX=0.5;entryY=0;entryDx=0;entryDy=0;" parent="1" source="nExQPK7tHjRJVye-uC_C-22" target="nExQPK7tHjRJVye-uC_C-26" edge="1">
          <mxGeometry relative="1" as="geometry" />
        </mxCell>
        <mxCell id="nExQPK7tHjRJVye-uC_C-141" value="da" style="edgeLabel;html=1;align=center;verticalAlign=middle;resizable=0;points=[];" parent="nExQPK7tHjRJVye-uC_C-140" vertex="1" connectable="0">
          <mxGeometry x="-0.3238" y="4" relative="1" as="geometry">
            <mxPoint x="6" as="offset" />
          </mxGeometry>
        </mxCell>
        <mxCell id="nExQPK7tHjRJVye-uC_C-22" value="&lt;font style=&quot;font-size: 11px;&quot;&gt;Valid?&lt;/font&gt;" style="rhombus;whiteSpace=wrap;html=1;fontColor=#000000;fillColor=#FFFFFF;strokeColor=#000000;rounded=1;align=center;verticalAlign=middle;arcSize=40;fontFamily=Helvetica;fontSize=12;" parent="1" vertex="1">
          <mxGeometry x="475" y="2348" width="80" height="40" as="geometry" />
        </mxCell>
        <mxCell id="nExQPK7tHjRJVye-uC_C-26" value="&lt;font style=&quot;font-size: 11px;&quot;&gt;Genereaza access token&lt;/font&gt;" style="rounded=1;whiteSpace=wrap;html=1;arcSize=40;fontColor=#000000;fillColor=#FFFFFF;strokeColor=#000000;align=center;verticalAlign=middle;fontFamily=Helvetica;fontSize=12;" parent="1" vertex="1">
          <mxGeometry x="455" y="2428" width="120" height="40" as="geometry" />
        </mxCell>
        <mxCell id="nExQPK7tHjRJVye-uC_C-101" style="edgeStyle=orthogonalEdgeStyle;rounded=0;orthogonalLoop=1;jettySize=auto;html=1;exitX=0.5;exitY=1;exitDx=0;exitDy=0;" parent="1" source="nExQPK7tHjRJVye-uC_C-26" target="nExQPK7tHjRJVye-uC_C-95" edge="1">
          <mxGeometry relative="1" as="geometry">
            <mxPoint x="515" y="2555" as="sourcePoint" />
          </mxGeometry>
        </mxCell>
        <mxCell id="nExQPK7tHjRJVye-uC_C-151" style="edgeStyle=orthogonalEdgeStyle;rounded=0;orthogonalLoop=1;jettySize=auto;html=1;exitX=0.5;exitY=1;exitDx=0;exitDy=0;entryX=0.5;entryY=0;entryDx=0;entryDy=0;" parent="1" source="nExQPK7tHjRJVye-uC_C-39" target="nExQPK7tHjRJVye-uC_C-42" edge="1">
          <mxGeometry relative="1" as="geometry" />
        </mxCell>
        <mxCell id="nExQPK7tHjRJVye-uC_C-39" value="&lt;font style=&quot;font-size: 11px;&quot;&gt;Stocheaza acces token in memory&lt;/font&gt;" style="rounded=1;whiteSpace=wrap;html=1;arcSize=40;fontColor=#000000;fillColor=#FFFFFF;strokeColor=#000000;align=center;verticalAlign=middle;fontFamily=Helvetica;fontSize=12;" parent="1" vertex="1">
          <mxGeometry x="455" y="3375" width="120" height="40" as="geometry" />
        </mxCell>
        <mxCell id="nExQPK7tHjRJVye-uC_C-156" style="edgeStyle=orthogonalEdgeStyle;rounded=0;orthogonalLoop=1;jettySize=auto;html=1;exitX=0.5;exitY=1;exitDx=0;exitDy=0;entryX=0.5;entryY=0;entryDx=0;entryDy=0;" parent="1" source="nExQPK7tHjRJVye-uC_C-42" target="nExQPK7tHjRJVye-uC_C-155" edge="1">
          <mxGeometry relative="1" as="geometry" />
        </mxCell>
        <mxCell id="nExQPK7tHjRJVye-uC_C-42" value="&lt;font style=&quot;font-size: 11px;&quot;&gt;Seteaza contextul cu sub(userId) si role&lt;/font&gt;" style="rounded=1;whiteSpace=wrap;html=1;arcSize=40;fontColor=#000000;fillColor=#FFFFFF;strokeColor=#000000;align=center;verticalAlign=middle;fontFamily=Helvetica;fontSize=12;" parent="1" vertex="1">
          <mxGeometry x="455" y="3460" width="120" height="40" as="geometry" />
        </mxCell>
        <mxCell id="nExQPK7tHjRJVye-uC_C-46" value="" style="ellipse;html=1;shape=endState;fillColor=#000000;strokeColor=light-dark(#000000, #121212);" parent="1" vertex="1">
          <mxGeometry x="500" y="3630" width="30" height="30" as="geometry" />
        </mxCell>
        <mxCell id="nExQPK7tHjRJVye-uC_C-120" style="edgeStyle=orthogonalEdgeStyle;rounded=0;orthogonalLoop=1;jettySize=auto;html=1;exitX=0.5;exitY=1;exitDx=0;exitDy=0;" parent="1" source="nExQPK7tHjRJVye-uC_C-48" target="nExQPK7tHjRJVye-uC_C-75" edge="1">
          <mxGeometry relative="1" as="geometry" />
        </mxCell>
        <mxCell id="nExQPK7tHjRJVye-uC_C-48" value="&lt;font style=&quot;font-size: 11px;&quot;&gt;User-ul este neautentificat&lt;/font&gt;" style="rounded=1;whiteSpace=wrap;html=1;arcSize=40;fontColor=#000000;fillColor=#FFFFFF;strokeColor=#000000;align=center;verticalAlign=middle;fontFamily=Helvetica;fontSize=12;" parent="1" vertex="1">
          <mxGeometry x="951" y="2401" width="120" height="40" as="geometry" />
        </mxCell>
        <mxCell id="nExQPK7tHjRJVye-uC_C-137" style="edgeStyle=orthogonalEdgeStyle;rounded=0;orthogonalLoop=1;jettySize=auto;html=1;exitX=0;exitY=0.5;exitDx=0;exitDy=0;entryX=0.5;entryY=0;entryDx=0;entryDy=0;" parent="1" source="nExQPK7tHjRJVye-uC_C-75" target="nExQPK7tHjRJVye-uC_C-112" edge="1">
          <mxGeometry relative="1" as="geometry" />
        </mxCell>
        <mxCell id="nExQPK7tHjRJVye-uC_C-138" value="da" style="edgeLabel;html=1;align=center;verticalAlign=middle;resizable=0;points=[];" parent="nExQPK7tHjRJVye-uC_C-137" vertex="1" connectable="0">
          <mxGeometry x="-0.6124" y="-1" relative="1" as="geometry">
            <mxPoint x="11" y="-10" as="offset" />
          </mxGeometry>
        </mxCell>
        <mxCell id="nExQPK7tHjRJVye-uC_C-152" style="edgeStyle=orthogonalEdgeStyle;rounded=0;orthogonalLoop=1;jettySize=auto;html=1;exitX=1;exitY=0.5;exitDx=0;exitDy=0;entryX=0;entryY=0.5;entryDx=0;entryDy=0;" parent="1" source="nExQPK7tHjRJVye-uC_C-75" target="nExQPK7tHjRJVye-uC_C-108" edge="1">
          <mxGeometry relative="1" as="geometry" />
        </mxCell>
        <mxCell id="nExQPK7tHjRJVye-uC_C-153" value="&lt;span style=&quot;text-align: left;&quot;&gt;alege optiuna &quot;Create Account&quot;&lt;/span&gt;" style="edgeLabel;html=1;align=center;verticalAlign=middle;resizable=0;points=[];" parent="nExQPK7tHjRJVye-uC_C-152" vertex="1" connectable="0">
          <mxGeometry x="-0.2185" y="2" relative="1" as="geometry">
            <mxPoint x="13" y="-9" as="offset" />
          </mxGeometry>
        </mxCell>
        <mxCell id="nExQPK7tHjRJVye-uC_C-75" value="&lt;font style=&quot;font-size: 11px;&quot;&gt;User-ul alege optiunea &quot;Login&quot;&lt;/font&gt;" style="rhombus;whiteSpace=wrap;html=1;fontColor=#000000;fillColor=#FFFFFF;strokeColor=#000000;rounded=1;align=center;verticalAlign=middle;arcSize=40;fontFamily=Helvetica;fontSize=12;" parent="1" vertex="1">
          <mxGeometry x="956" y="2491" width="110" height="80" as="geometry" />
        </mxCell>
        <mxCell id="nExQPK7tHjRJVye-uC_C-142" style="edgeStyle=orthogonalEdgeStyle;rounded=0;orthogonalLoop=1;jettySize=auto;html=1;exitX=0.5;exitY=1;exitDx=0;exitDy=0;" parent="1" source="nExQPK7tHjRJVye-uC_C-79" target="nExQPK7tHjRJVye-uC_C-81" edge="1">
          <mxGeometry relative="1" as="geometry" />
        </mxCell>
        <mxCell id="nExQPK7tHjRJVye-uC_C-79" value="&lt;font style=&quot;font-size: 11px;&quot;&gt;Completeaza email-ul si parola&lt;/font&gt;" style="rounded=1;whiteSpace=wrap;html=1;arcSize=40;fontColor=#000000;fillColor=#FFFFFF;strokeColor=#000000;align=center;verticalAlign=middle;fontFamily=Helvetica;fontSize=12;" parent="1" vertex="1">
          <mxGeometry x="790" y="2681" width="120" height="40" as="geometry" />
        </mxCell>
        <mxCell id="nExQPK7tHjRJVye-uC_C-143" style="edgeStyle=orthogonalEdgeStyle;rounded=0;orthogonalLoop=1;jettySize=auto;html=1;exitX=0.5;exitY=1;exitDx=0;exitDy=0;entryX=0.5;entryY=0;entryDx=0;entryDy=0;" parent="1" source="nExQPK7tHjRJVye-uC_C-81" target="nExQPK7tHjRJVye-uC_C-83" edge="1">
          <mxGeometry relative="1" as="geometry" />
        </mxCell>
        <mxCell id="nExQPK7tHjRJVye-uC_C-81" value="&lt;font style=&quot;font-size: 11px;&quot;&gt;Trimite LogInRequest&lt;/font&gt;" style="rounded=1;whiteSpace=wrap;html=1;arcSize=40;fontColor=#000000;fillColor=#FFFFFF;strokeColor=#000000;align=center;verticalAlign=middle;fontFamily=Helvetica;fontSize=12;" parent="1" vertex="1">
          <mxGeometry x="790" y="2761" width="120" height="40" as="geometry" />
        </mxCell>
        <mxCell id="nExQPK7tHjRJVye-uC_C-148" style="edgeStyle=orthogonalEdgeStyle;rounded=0;orthogonalLoop=1;jettySize=auto;html=1;exitX=0.5;exitY=1;exitDx=0;exitDy=0;" parent="1" source="nExQPK7tHjRJVye-uC_C-83" target="nExQPK7tHjRJVye-uC_C-85" edge="1">
          <mxGeometry relative="1" as="geometry" />
        </mxCell>
        <mxCell id="nExQPK7tHjRJVye-uC_C-83" value="&lt;font style=&quot;font-size: 11px;&quot;&gt;Valideaza credentialele&lt;/font&gt;" style="rounded=1;whiteSpace=wrap;html=1;arcSize=40;fontColor=#000000;fillColor=#FFFFFF;strokeColor=#000000;align=center;verticalAlign=middle;fontFamily=Helvetica;fontSize=12;" parent="1" vertex="1">
          <mxGeometry x="790" y="2851" width="120" height="40" as="geometry" />
        </mxCell>
        <mxCell id="nExQPK7tHjRJVye-uC_C-145" value="" style="edgeStyle=orthogonalEdgeStyle;rounded=0;orthogonalLoop=1;jettySize=auto;html=1;" parent="1" source="nExQPK7tHjRJVye-uC_C-85" target="nExQPK7tHjRJVye-uC_C-104" edge="1">
          <mxGeometry relative="1" as="geometry" />
        </mxCell>
        <mxCell id="nExQPK7tHjRJVye-uC_C-146" value="nu" style="edgeLabel;html=1;align=center;verticalAlign=middle;resizable=0;points=[];" parent="nExQPK7tHjRJVye-uC_C-145" vertex="1" connectable="0">
          <mxGeometry x="-0.0697" y="-2" relative="1" as="geometry">
            <mxPoint x="24" y="-9" as="offset" />
          </mxGeometry>
        </mxCell>
        <mxCell id="nExQPK7tHjRJVye-uC_C-149" style="edgeStyle=orthogonalEdgeStyle;rounded=0;orthogonalLoop=1;jettySize=auto;html=1;exitX=0.5;exitY=1;exitDx=0;exitDy=0;" parent="1" source="nExQPK7tHjRJVye-uC_C-85" target="nExQPK7tHjRJVye-uC_C-88" edge="1">
          <mxGeometry relative="1" as="geometry" />
        </mxCell>
        <mxCell id="nExQPK7tHjRJVye-uC_C-150" value="da" style="edgeLabel;html=1;align=center;verticalAlign=middle;resizable=0;points=[];" parent="nExQPK7tHjRJVye-uC_C-149" vertex="1" connectable="0">
          <mxGeometry x="-0.1643" y="2" relative="1" as="geometry">
            <mxPoint x="12" y="-8" as="offset" />
          </mxGeometry>
        </mxCell>
        <mxCell id="nExQPK7tHjRJVye-uC_C-85" value="Valide?" style="rhombus;whiteSpace=wrap;html=1;fontColor=#000000;fillColor=#FFFFFF;strokeColor=#000000;rounded=1;align=center;verticalAlign=middle;arcSize=40;fontFamily=Helvetica;fontSize=12;" parent="1" vertex="1">
          <mxGeometry x="810" y="2921" width="80" height="40" as="geometry" />
        </mxCell>
        <mxCell id="nExQPK7tHjRJVye-uC_C-121" style="edgeStyle=orthogonalEdgeStyle;rounded=0;orthogonalLoop=1;jettySize=auto;html=1;exitX=0.5;exitY=1;exitDx=0;exitDy=0;entryX=0.5;entryY=0;entryDx=0;entryDy=0;" parent="1" source="nExQPK7tHjRJVye-uC_C-88" target="nExQPK7tHjRJVye-uC_C-91" edge="1">
          <mxGeometry relative="1" as="geometry" />
        </mxCell>
        <mxCell id="nExQPK7tHjRJVye-uC_C-88" value="&lt;font style=&quot;font-size: 11px;&quot;&gt;Genereaza access si refresh token&lt;/font&gt;" style="rounded=1;whiteSpace=wrap;html=1;arcSize=40;fontColor=#000000;fillColor=#FFFFFF;strokeColor=#000000;align=center;verticalAlign=middle;fontFamily=Helvetica;fontSize=12;" parent="1" vertex="1">
          <mxGeometry x="790" y="3001" width="120" height="40" as="geometry" />
        </mxCell>
        <mxCell id="PeAEmG7UBakHfS5IXVN7-29" style="edgeStyle=orthogonalEdgeStyle;rounded=0;orthogonalLoop=1;jettySize=auto;html=1;exitX=0.5;exitY=1;exitDx=0;exitDy=0;entryX=1;entryY=0.5;entryDx=0;entryDy=0;" parent="1" source="nExQPK7tHjRJVye-uC_C-91" target="nExQPK7tHjRJVye-uC_C-95" edge="1">
          <mxGeometry relative="1" as="geometry" />
        </mxCell>
        <mxCell id="nExQPK7tHjRJVye-uC_C-91" value="&lt;font style=&quot;font-size: 11px;&quot;&gt;Seteaza refresh token in cookie HttpOnly&lt;/font&gt;" style="rounded=1;whiteSpace=wrap;html=1;arcSize=40;fontColor=#000000;fillColor=#FFFFFF;strokeColor=#000000;align=center;verticalAlign=middle;fontFamily=Helvetica;fontSize=12;" parent="1" vertex="1">
          <mxGeometry x="790" y="3071" width="120" height="40" as="geometry" />
        </mxCell>
        <mxCell id="PeAEmG7UBakHfS5IXVN7-31" style="edgeStyle=orthogonalEdgeStyle;rounded=0;orthogonalLoop=1;jettySize=auto;html=1;exitX=0.5;exitY=1;exitDx=0;exitDy=0;entryX=0.5;entryY=0;entryDx=0;entryDy=0;" parent="1" source="nExQPK7tHjRJVye-uC_C-95" target="PeAEmG7UBakHfS5IXVN7-30" edge="1">
          <mxGeometry relative="1" as="geometry" />
        </mxCell>
        <mxCell id="nExQPK7tHjRJVye-uC_C-95" value="" style="rhombus;whiteSpace=wrap;html=1;fillColor=#FFFFFF;strokeColor=#000000;fontColor=#000000;rounded=1;arcSize=40;align=center;verticalAlign=middle;fontFamily=Helvetica;fontSize=12;" parent="1" vertex="1">
          <mxGeometry x="475" y="3140" width="80" height="80" as="geometry" />
        </mxCell>
        <mxCell id="nExQPK7tHjRJVye-uC_C-139" style="edgeStyle=orthogonalEdgeStyle;rounded=0;orthogonalLoop=1;jettySize=auto;html=1;exitX=0.5;exitY=0;exitDx=0;exitDy=0;entryX=0;entryY=0.5;entryDx=0;entryDy=0;" parent="1" source="nExQPK7tHjRJVye-uC_C-104" target="nExQPK7tHjRJVye-uC_C-112" edge="1">
          <mxGeometry relative="1" as="geometry" />
        </mxCell>
        <mxCell id="nExQPK7tHjRJVye-uC_C-104" value="&lt;font style=&quot;font-size: 11px;&quot;&gt;Credentiale invalide&lt;/font&gt;" style="rounded=1;whiteSpace=wrap;html=1;arcSize=40;fontColor=#000000;fillColor=#FFFFFF;strokeColor=#000000;align=center;verticalAlign=middle;fontFamily=Helvetica;fontSize=12;" parent="1" vertex="1">
          <mxGeometry x="630" y="2921" width="120" height="40" as="geometry" />
        </mxCell>
        <mxCell id="nExQPK7tHjRJVye-uC_C-126" style="edgeStyle=orthogonalEdgeStyle;rounded=0;orthogonalLoop=1;jettySize=auto;html=1;exitX=0.5;exitY=1;exitDx=0;exitDy=0;entryX=0.5;entryY=0;entryDx=0;entryDy=0;" parent="1" source="nExQPK7tHjRJVye-uC_C-108" target="nExQPK7tHjRJVye-uC_C-110" edge="1">
          <mxGeometry relative="1" as="geometry" />
        </mxCell>
        <mxCell id="nExQPK7tHjRJVye-uC_C-108" value="&lt;font style=&quot;font-size: 11px;&quot;&gt;Completeaza formular de inregistrare&lt;/font&gt;" style="rounded=1;whiteSpace=wrap;html=1;arcSize=40;fontColor=#000000;fillColor=#FFFFFF;strokeColor=#000000;align=center;verticalAlign=middle;fontFamily=Helvetica;fontSize=12;" parent="1" vertex="1">
          <mxGeometry x="1241" y="2511" width="120" height="40" as="geometry" />
        </mxCell>
        <mxCell id="nExQPK7tHjRJVye-uC_C-134" style="edgeStyle=orthogonalEdgeStyle;rounded=0;orthogonalLoop=1;jettySize=auto;html=1;exitX=0;exitY=0.5;exitDx=0;exitDy=0;" parent="1" source="nExQPK7tHjRJVye-uC_C-110" target="nExQPK7tHjRJVye-uC_C-112" edge="1">
          <mxGeometry relative="1" as="geometry" />
        </mxCell>
        <mxCell id="nExQPK7tHjRJVye-uC_C-110" value="&lt;span style=&quot;font-size: 11px;&quot;&gt;User-ul este redirectionat catre Login page&lt;/span&gt;" style="rounded=1;whiteSpace=wrap;html=1;arcSize=40;fontColor=#000000;fillColor=#FFFFFF;strokeColor=#000000;align=center;verticalAlign=middle;fontFamily=Helvetica;fontSize=12;" parent="1" vertex="1">
          <mxGeometry x="1241" y="2591" width="120" height="40" as="geometry" />
        </mxCell>
        <mxCell id="nExQPK7tHjRJVye-uC_C-114" value="" style="edgeStyle=orthogonalEdgeStyle;rounded=0;orthogonalLoop=1;jettySize=auto;html=1;" parent="1" source="nExQPK7tHjRJVye-uC_C-112" target="nExQPK7tHjRJVye-uC_C-79" edge="1">
          <mxGeometry relative="1" as="geometry" />
        </mxCell>
        <mxCell id="nExQPK7tHjRJVye-uC_C-112" value="" style="rhombus;whiteSpace=wrap;html=1;fillColor=#FFFFFF;strokeColor=#000000;fontColor=#000000;rounded=1;arcSize=40;align=center;verticalAlign=middle;fontFamily=Helvetica;fontSize=12;" parent="1" vertex="1">
          <mxGeometry x="810" y="2571" width="80" height="80" as="geometry" />
        </mxCell>
        <mxCell id="nExQPK7tHjRJVye-uC_C-115" value="user-auth-ms" style="shape=umlFrame;whiteSpace=wrap;html=1;pointerEvents=0;width=105;height=40;" parent="1" vertex="1">
          <mxGeometry x="581" y="2811" width="479" height="339" as="geometry" />
        </mxCell>
        <mxCell id="nExQPK7tHjRJVye-uC_C-119" style="edgeStyle=orthogonalEdgeStyle;rounded=0;orthogonalLoop=1;jettySize=auto;html=1;exitX=0.5;exitY=1;exitDx=0;exitDy=0;" parent="1" source="nExQPK7tHjRJVye-uC_C-117" target="nExQPK7tHjRJVye-uC_C-22" edge="1">
          <mxGeometry relative="1" as="geometry" />
        </mxCell>
        <mxCell id="nExQPK7tHjRJVye-uC_C-117" value="&lt;font style=&quot;font-size: 11px;&quot;&gt;Valideaza refresh token-ul&lt;/font&gt;" style="rounded=1;whiteSpace=wrap;html=1;arcSize=40;fontColor=#000000;fillColor=#FFFFFF;strokeColor=#000000;align=center;verticalAlign=middle;fontFamily=Helvetica;fontSize=12;" parent="1" vertex="1">
          <mxGeometry x="455" y="2275" width="120" height="40" as="geometry" />
        </mxCell>
        <mxCell id="nExQPK7tHjRJVye-uC_C-122" value="Frontend" style="shape=umlFrame;whiteSpace=wrap;html=1;pointerEvents=0;width=105;height=40;" parent="1" vertex="1">
          <mxGeometry x="270" y="2090" width="1130" height="1510" as="geometry" />
        </mxCell>
        <mxCell id="nExQPK7tHjRJVye-uC_C-157" style="edgeStyle=orthogonalEdgeStyle;rounded=0;orthogonalLoop=1;jettySize=auto;html=1;exitX=0.5;exitY=1;exitDx=0;exitDy=0;entryX=0.5;entryY=0;entryDx=0;entryDy=0;" parent="1" source="nExQPK7tHjRJVye-uC_C-155" target="nExQPK7tHjRJVye-uC_C-46" edge="1">
          <mxGeometry relative="1" as="geometry" />
        </mxCell>
        <mxCell id="nExQPK7tHjRJVye-uC_C-155" value="&lt;font style=&quot;font-size: 11px;&quot;&gt;User-ul este autentificat&lt;/font&gt;" style="rounded=1;whiteSpace=wrap;html=1;arcSize=40;fontColor=#000000;fillColor=#FFFFFF;strokeColor=#000000;align=center;verticalAlign=middle;fontFamily=Helvetica;fontSize=12;" parent="1" vertex="1">
          <mxGeometry x="455" y="3540" width="120" height="40" as="geometry" />
        </mxCell>
        <mxCell id="PeAEmG7UBakHfS5IXVN7-1" value="&lt;div style=&quot;text-align: center;&quot;&gt;&lt;span style=&quot;font-size: 20px;&quot;&gt;&lt;i&gt;&lt;u&gt;Diagrama de activitate pentru procesul de inregistrare distribuit&lt;/u&gt;&lt;/i&gt;&lt;/span&gt;&lt;/div&gt;" style="text;whiteSpace=wrap;html=1;" parent="1" vertex="1">
          <mxGeometry x="35" y="3740" width="425" height="70" as="geometry" />
        </mxCell>
        <mxCell id="PeAEmG7UBakHfS5IXVN7-5" style="edgeStyle=orthogonalEdgeStyle;rounded=0;orthogonalLoop=1;jettySize=auto;html=1;exitX=0.5;exitY=1;exitDx=0;exitDy=0;" parent="1" source="PeAEmG7UBakHfS5IXVN7-3" target="PeAEmG7UBakHfS5IXVN7-4" edge="1">
          <mxGeometry relative="1" as="geometry" />
        </mxCell>
        <mxCell id="PeAEmG7UBakHfS5IXVN7-3" value="" style="ellipse;html=1;shape=startState;fillColor=#000000;strokeColor=default;" parent="1" vertex="1">
          <mxGeometry x="240" y="3819" width="30" height="30" as="geometry" />
        </mxCell>
        <mxCell id="PeAEmG7UBakHfS5IXVN7-11" style="edgeStyle=orthogonalEdgeStyle;rounded=0;orthogonalLoop=1;jettySize=auto;html=1;exitX=0.5;exitY=1;exitDx=0;exitDy=0;" parent="1" source="PeAEmG7UBakHfS5IXVN7-4" target="PeAEmG7UBakHfS5IXVN7-10" edge="1">
          <mxGeometry relative="1" as="geometry" />
        </mxCell>
        <mxCell id="PeAEmG7UBakHfS5IXVN7-4" value="&lt;font style=&quot;font-size: 11px;&quot;&gt;User-ul completeaza formularul&lt;/font&gt;" style="rounded=1;whiteSpace=wrap;html=1;arcSize=40;fontColor=#000000;fillColor=#FFFFFF;strokeColor=#000000;" parent="1" vertex="1">
          <mxGeometry x="195" y="3890" width="120" height="40" as="geometry" />
        </mxCell>
        <mxCell id="PeAEmG7UBakHfS5IXVN7-6" value="Frontend" style="shape=umlFrame;whiteSpace=wrap;html=1;pointerEvents=0;width=105;height=40;" parent="1" vertex="1">
          <mxGeometry x="40" y="3860" width="440" height="2080" as="geometry" />
        </mxCell>
        <mxCell id="PeAEmG7UBakHfS5IXVN7-7" value="user-auth-ms" style="shape=umlFrame;whiteSpace=wrap;html=1;pointerEvents=0;width=105;height=40;" parent="1" vertex="1">
          <mxGeometry x="480" y="3860" width="440" height="2080" as="geometry" />
        </mxCell>
        <mxCell id="PeAEmG7UBakHfS5IXVN7-8" value="RabbitMQ" style="shape=umlFrame;whiteSpace=wrap;html=1;pointerEvents=0;width=105;height=40;" parent="1" vertex="1">
          <mxGeometry x="920" y="3860" width="440" height="2080" as="geometry" />
        </mxCell>
        <mxCell id="PeAEmG7UBakHfS5IXVN7-9" value="user-management-ms" style="shape=umlFrame;whiteSpace=wrap;html=1;pointerEvents=0;width=105;height=40;" parent="1" vertex="1">
          <mxGeometry x="1360" y="3860" width="440" height="2080" as="geometry" />
        </mxCell>
        <mxCell id="PeAEmG7UBakHfS5IXVN7-13" style="edgeStyle=orthogonalEdgeStyle;rounded=0;orthogonalLoop=1;jettySize=auto;html=1;exitX=0.5;exitY=1;exitDx=0;exitDy=0;entryX=0.5;entryY=0;entryDx=0;entryDy=0;" parent="1" source="PeAEmG7UBakHfS5IXVN7-10" target="PeAEmG7UBakHfS5IXVN7-12" edge="1">
          <mxGeometry relative="1" as="geometry" />
        </mxCell>
        <mxCell id="PeAEmG7UBakHfS5IXVN7-10" value="&lt;font style=&quot;font-size: 11px;&quot;&gt;Trimite SignUpRequest&lt;/font&gt;" style="rounded=1;whiteSpace=wrap;html=1;arcSize=40;fontColor=#000000;fillColor=#FFFFFF;strokeColor=#000000;" parent="1" vertex="1">
          <mxGeometry x="195" y="3970" width="120" height="40" as="geometry" />
        </mxCell>
        <mxCell id="PeAEmG7UBakHfS5IXVN7-15" style="edgeStyle=orthogonalEdgeStyle;rounded=0;orthogonalLoop=1;jettySize=auto;html=1;exitX=0.5;exitY=1;exitDx=0;exitDy=0;entryX=0.5;entryY=0;entryDx=0;entryDy=0;" parent="1" source="PeAEmG7UBakHfS5IXVN7-12" target="PeAEmG7UBakHfS5IXVN7-14" edge="1">
          <mxGeometry relative="1" as="geometry" />
        </mxCell>
        <mxCell id="PeAEmG7UBakHfS5IXVN7-12" value="&lt;span style=&quot;font-size: 11px;&quot;&gt;Stocheaza user-ul&lt;/span&gt;" style="rounded=1;whiteSpace=wrap;html=1;arcSize=40;fontColor=#000000;fillColor=#FFFFFF;strokeColor=#000000;" parent="1" vertex="1">
          <mxGeometry x="620" y="4050" width="120" height="40" as="geometry" />
        </mxCell>
        <mxCell id="PeAEmG7UBakHfS5IXVN7-17" style="edgeStyle=orthogonalEdgeStyle;rounded=0;orthogonalLoop=1;jettySize=auto;html=1;exitX=0.5;exitY=1;exitDx=0;exitDy=0;entryX=0.5;entryY=0;entryDx=0;entryDy=0;" parent="1" source="PeAEmG7UBakHfS5IXVN7-14" target="PeAEmG7UBakHfS5IXVN7-16" edge="1">
          <mxGeometry relative="1" as="geometry" />
        </mxCell>
        <mxCell id="PeAEmG7UBakHfS5IXVN7-14" value="&lt;span style=&quot;font-size: 11px;&quot;&gt;Genereaza correlation_id&lt;/span&gt;" style="rounded=1;whiteSpace=wrap;html=1;arcSize=40;fontColor=#000000;fillColor=#FFFFFF;strokeColor=#000000;" parent="1" vertex="1">
          <mxGeometry x="620" y="4130" width="120" height="40" as="geometry" />
        </mxCell>
        <mxCell id="PeAEmG7UBakHfS5IXVN7-22" style="edgeStyle=orthogonalEdgeStyle;rounded=0;orthogonalLoop=1;jettySize=auto;html=1;exitX=0.5;exitY=1;exitDx=0;exitDy=0;entryX=0.5;entryY=0;entryDx=0;entryDy=0;" parent="1" source="PeAEmG7UBakHfS5IXVN7-16" target="PeAEmG7UBakHfS5IXVN7-21" edge="1">
          <mxGeometry relative="1" as="geometry" />
        </mxCell>
        <mxCell id="PeAEmG7UBakHfS5IXVN7-16" value="&lt;span style=&quot;font-size: 11px;&quot;&gt;Salveaza saga cu status pending&lt;/span&gt;" style="rounded=1;whiteSpace=wrap;html=1;arcSize=40;fontColor=#000000;fillColor=#FFFFFF;strokeColor=#000000;" parent="1" vertex="1">
          <mxGeometry x="620" y="4210" width="120" height="40" as="geometry" />
        </mxCell>
        <mxCell id="PeAEmG7UBakHfS5IXVN7-24" style="edgeStyle=orthogonalEdgeStyle;rounded=0;orthogonalLoop=1;jettySize=auto;html=1;exitX=0.5;exitY=1;exitDx=0;exitDy=0;" parent="1" source="PeAEmG7UBakHfS5IXVN7-21" target="PeAEmG7UBakHfS5IXVN7-23" edge="1">
          <mxGeometry relative="1" as="geometry" />
        </mxCell>
        <mxCell id="PeAEmG7UBakHfS5IXVN7-21" value="&lt;span style=&quot;font-size: 11px;&quot;&gt;Construieste mesaj CreateUserProfile&lt;/span&gt;" style="rounded=1;whiteSpace=wrap;html=1;arcSize=40;fontColor=#000000;fillColor=#FFFFFF;strokeColor=#000000;" parent="1" vertex="1">
          <mxGeometry x="620" y="4290" width="120" height="40" as="geometry" />
        </mxCell>
        <mxCell id="PeAEmG7UBakHfS5IXVN7-26" value="" style="edgeStyle=orthogonalEdgeStyle;rounded=0;orthogonalLoop=1;jettySize=auto;html=1;" parent="1" source="PeAEmG7UBakHfS5IXVN7-23" target="PeAEmG7UBakHfS5IXVN7-25" edge="1">
          <mxGeometry relative="1" as="geometry" />
        </mxCell>
        <mxCell id="PeAEmG7UBakHfS5IXVN7-23" value="&lt;span style=&quot;font-size: 11px;&quot;&gt;Publica in exchange-ul create_user_profile_event&lt;/span&gt;" style="rounded=1;whiteSpace=wrap;html=1;arcSize=40;fontColor=#000000;fillColor=#FFFFFF;strokeColor=#000000;" parent="1" vertex="1">
          <mxGeometry x="613" y="4370" width="135" height="50" as="geometry" />
        </mxCell>
        <mxCell id="PeAEmG7UBakHfS5IXVN7-28" style="edgeStyle=orthogonalEdgeStyle;rounded=0;orthogonalLoop=1;jettySize=auto;html=1;exitX=0;exitY=0.5;exitDx=0;exitDy=0;entryX=0.5;entryY=0;entryDx=0;entryDy=0;" parent="1" source="PeAEmG7UBakHfS5IXVN7-25" target="PeAEmG7UBakHfS5IXVN7-27" edge="1">
          <mxGeometry relative="1" as="geometry" />
        </mxCell>
        <mxCell id="PeAEmG7UBakHfS5IXVN7-45" style="edgeStyle=orthogonalEdgeStyle;rounded=0;orthogonalLoop=1;jettySize=auto;html=1;exitX=1;exitY=0.5;exitDx=0;exitDy=0;entryX=0.5;entryY=0;entryDx=0;entryDy=0;" parent="1" source="PeAEmG7UBakHfS5IXVN7-25" target="PeAEmG7UBakHfS5IXVN7-44" edge="1">
          <mxGeometry relative="1" as="geometry" />
        </mxCell>
        <mxCell id="PeAEmG7UBakHfS5IXVN7-25" value="" style="rhombus;whiteSpace=wrap;html=1;fillColor=#FFFFFF;strokeColor=#000000;fontColor=#000000;rounded=1;arcSize=40;" parent="1" vertex="1">
          <mxGeometry x="640" y="4485" width="80" height="80" as="geometry" />
        </mxCell>
        <mxCell id="PeAEmG7UBakHfS5IXVN7-38" style="edgeStyle=orthogonalEdgeStyle;rounded=0;orthogonalLoop=1;jettySize=auto;html=1;exitX=0.5;exitY=1;exitDx=0;exitDy=0;entryX=0.5;entryY=0;entryDx=0;entryDy=0;" parent="1" source="PeAEmG7UBakHfS5IXVN7-27" target="PeAEmG7UBakHfS5IXVN7-42" edge="1">
          <mxGeometry relative="1" as="geometry">
            <mxPoint x="240" y="4640" as="targetPoint" />
          </mxGeometry>
        </mxCell>
        <mxCell id="PeAEmG7UBakHfS5IXVN7-27" value="&lt;span style=&quot;font-size: 11px;&quot;&gt;Primeste SignUpResponse&lt;/span&gt;" style="rounded=1;whiteSpace=wrap;html=1;arcSize=40;fontColor=#000000;fillColor=#FFFFFF;strokeColor=#000000;" parent="1" vertex="1">
          <mxGeometry x="180" y="4555" width="120" height="40" as="geometry" />
        </mxCell>
        <mxCell id="PeAEmG7UBakHfS5IXVN7-32" style="edgeStyle=orthogonalEdgeStyle;rounded=0;orthogonalLoop=1;jettySize=auto;html=1;exitX=0.5;exitY=1;exitDx=0;exitDy=0;" parent="1" source="PeAEmG7UBakHfS5IXVN7-30" target="nExQPK7tHjRJVye-uC_C-39" edge="1">
          <mxGeometry relative="1" as="geometry" />
        </mxCell>
        <mxCell id="PeAEmG7UBakHfS5IXVN7-30" value="&lt;font style=&quot;font-size: 11px;&quot;&gt;Primeste LogInResponse&lt;/font&gt;" style="rounded=1;whiteSpace=wrap;html=1;arcSize=40;fontColor=#000000;fillColor=#FFFFFF;strokeColor=#000000;align=center;verticalAlign=middle;fontFamily=Helvetica;fontSize=12;" parent="1" vertex="1">
          <mxGeometry x="455" y="3270" width="120" height="40" as="geometry" />
        </mxCell>
        <mxCell id="PeAEmG7UBakHfS5IXVN7-114" style="edgeStyle=orthogonalEdgeStyle;rounded=0;orthogonalLoop=1;jettySize=auto;html=1;exitX=0.5;exitY=1;exitDx=0;exitDy=0;" parent="1" source="PeAEmG7UBakHfS5IXVN7-42" target="PeAEmG7UBakHfS5IXVN7-94" edge="1">
          <mxGeometry relative="1" as="geometry" />
        </mxCell>
        <mxCell id="PeAEmG7UBakHfS5IXVN7-42" value="&lt;span style=&quot;font-size: 11px;&quot;&gt;Deschide WebSocket pe correlation_id&lt;/span&gt;" style="rounded=1;whiteSpace=wrap;html=1;arcSize=40;fontColor=#000000;fillColor=#FFFFFF;strokeColor=#000000;" parent="1" vertex="1">
          <mxGeometry x="180" y="4636" width="120" height="40" as="geometry" />
        </mxCell>
        <mxCell id="PeAEmG7UBakHfS5IXVN7-47" style="edgeStyle=orthogonalEdgeStyle;rounded=0;orthogonalLoop=1;jettySize=auto;html=1;exitX=1;exitY=0.5;exitDx=0;exitDy=0;entryX=0.5;entryY=0;entryDx=0;entryDy=0;" parent="1" source="PeAEmG7UBakHfS5IXVN7-44" target="PeAEmG7UBakHfS5IXVN7-49" edge="1">
          <mxGeometry relative="1" as="geometry">
            <mxPoint x="1569" y="4620" as="targetPoint" />
          </mxGeometry>
        </mxCell>
        <mxCell id="PeAEmG7UBakHfS5IXVN7-44" value="&lt;span style=&quot;font-size: 11px;&quot;&gt;Trimite mesajul catre create_user_profile_queue&lt;/span&gt;" style="rounded=1;whiteSpace=wrap;html=1;arcSize=40;fontColor=#000000;fillColor=#FFFFFF;strokeColor=#000000;" parent="1" vertex="1">
          <mxGeometry x="1066" y="4550" width="140" height="50" as="geometry" />
        </mxCell>
        <mxCell id="PeAEmG7UBakHfS5IXVN7-51" style="edgeStyle=orthogonalEdgeStyle;rounded=0;orthogonalLoop=1;jettySize=auto;html=1;exitX=0.5;exitY=1;exitDx=0;exitDy=0;entryX=0.5;entryY=0;entryDx=0;entryDy=0;" parent="1" source="PeAEmG7UBakHfS5IXVN7-49" target="PeAEmG7UBakHfS5IXVN7-50" edge="1">
          <mxGeometry relative="1" as="geometry" />
        </mxCell>
        <mxCell id="PeAEmG7UBakHfS5IXVN7-49" value="&lt;span style=&quot;font-size: 11px;&quot;&gt;Consuma mesajul CreateUserProfile&lt;/span&gt;" style="rounded=1;whiteSpace=wrap;html=1;arcSize=40;fontColor=#000000;fillColor=#FFFFFF;strokeColor=#000000;" parent="1" vertex="1">
          <mxGeometry x="1510" y="4610" width="120" height="40" as="geometry" />
        </mxCell>
        <mxCell id="PeAEmG7UBakHfS5IXVN7-55" style="edgeStyle=orthogonalEdgeStyle;rounded=0;orthogonalLoop=1;jettySize=auto;html=1;exitX=0.5;exitY=1;exitDx=0;exitDy=0;entryX=0.5;entryY=0;entryDx=0;entryDy=0;" parent="1" source="PeAEmG7UBakHfS5IXVN7-50" target="PeAEmG7UBakHfS5IXVN7-52" edge="1">
          <mxGeometry relative="1" as="geometry" />
        </mxCell>
        <mxCell id="PeAEmG7UBakHfS5IXVN7-50" value="&lt;span style=&quot;font-size: 11px;&quot;&gt;Creaza profil utilizator&lt;/span&gt;" style="rounded=1;whiteSpace=wrap;html=1;arcSize=40;fontColor=#000000;fillColor=#FFFFFF;strokeColor=#000000;" parent="1" vertex="1">
          <mxGeometry x="1510" y="4690" width="120" height="40" as="geometry" />
        </mxCell>
        <mxCell id="PeAEmG7UBakHfS5IXVN7-52" value="Creare reusita?" style="rhombus;whiteSpace=wrap;html=1;fontColor=#000000;fillColor=#FFFFFF;strokeColor=#000000;align=center;verticalAlign=middle;fontFamily=Helvetica;fontSize=12;rounded=1;arcSize=40;" parent="1" vertex="1">
          <mxGeometry x="1530" y="4760" width="80" height="50" as="geometry" />
        </mxCell>
        <mxCell id="PeAEmG7UBakHfS5IXVN7-53" value="nu" style="edgeStyle=orthogonalEdgeStyle;html=1;align=center;verticalAlign=middle;endArrow=classic;endSize=8;strokeColor=default;rounded=0;entryX=0.5;entryY=0;entryDx=0;entryDy=0;fontFamily=Helvetica;fontSize=11;fontColor=default;labelBackgroundColor=default;" parent="1" source="PeAEmG7UBakHfS5IXVN7-52" target="PeAEmG7UBakHfS5IXVN7-58" edge="1">
          <mxGeometry x="-0.84" y="15" relative="1" as="geometry">
            <mxPoint x="1714.5" y="4820" as="targetPoint" />
            <mxPoint as="offset" />
          </mxGeometry>
        </mxCell>
        <mxCell id="PeAEmG7UBakHfS5IXVN7-54" value="da" style="edgeStyle=orthogonalEdgeStyle;html=1;align=center;verticalAlign=middle;endArrow=classic;endSize=8;strokeColor=default;rounded=0;exitX=0;exitY=0.5;exitDx=0;exitDy=0;entryX=0.5;entryY=0;entryDx=0;entryDy=0;fontFamily=Helvetica;fontSize=11;fontColor=default;labelBackgroundColor=default;" parent="1" source="PeAEmG7UBakHfS5IXVN7-52" edge="1">
          <mxGeometry x="-0.8268" y="-15" relative="1" as="geometry">
            <mxPoint x="1450" y="4821" as="targetPoint" />
            <mxPoint x="1530" y="4786" as="sourcePoint" />
            <mxPoint as="offset" />
          </mxGeometry>
        </mxCell>
        <mxCell id="PeAEmG7UBakHfS5IXVN7-62" style="edgeStyle=orthogonalEdgeStyle;rounded=0;orthogonalLoop=1;jettySize=auto;html=1;exitX=0.5;exitY=1;exitDx=0;exitDy=0;entryX=0;entryY=0.5;entryDx=0;entryDy=0;" parent="1" source="PeAEmG7UBakHfS5IXVN7-56" target="PeAEmG7UBakHfS5IXVN7-60" edge="1">
          <mxGeometry relative="1" as="geometry" />
        </mxCell>
        <mxCell id="PeAEmG7UBakHfS5IXVN7-56" value="&lt;span style=&quot;font-size: 11px;&quot;&gt;Publica UserProfileCreated in exchange-ul user_profile_created_event&lt;/span&gt;" style="rounded=1;whiteSpace=wrap;html=1;arcSize=40;fontColor=#000000;fillColor=#FFFFFF;strokeColor=#000000;" parent="1" vertex="1">
          <mxGeometry x="1370" y="4820" width="160" height="60" as="geometry" />
        </mxCell>
        <mxCell id="PeAEmG7UBakHfS5IXVN7-61" style="edgeStyle=orthogonalEdgeStyle;rounded=0;orthogonalLoop=1;jettySize=auto;html=1;exitX=0.5;exitY=1;exitDx=0;exitDy=0;entryX=1;entryY=0.5;entryDx=0;entryDy=0;" parent="1" source="PeAEmG7UBakHfS5IXVN7-58" target="PeAEmG7UBakHfS5IXVN7-60" edge="1">
          <mxGeometry relative="1" as="geometry" />
        </mxCell>
        <mxCell id="PeAEmG7UBakHfS5IXVN7-58" value="&lt;span style=&quot;font-size: 11px;&quot;&gt;Publica UserProfileFailed in exchange-ul user_profile_failed_event&lt;/span&gt;" style="rounded=1;whiteSpace=wrap;html=1;arcSize=40;fontColor=#000000;fillColor=#FFFFFF;strokeColor=#000000;" parent="1" vertex="1">
          <mxGeometry x="1620" y="4820" width="160" height="60" as="geometry" />
        </mxCell>
        <mxCell id="PeAEmG7UBakHfS5IXVN7-64" style="edgeStyle=orthogonalEdgeStyle;rounded=0;orthogonalLoop=1;jettySize=auto;html=1;exitX=0.5;exitY=1;exitDx=0;exitDy=0;entryX=0.5;entryY=0;entryDx=0;entryDy=0;" parent="1" source="PeAEmG7UBakHfS5IXVN7-60" target="PeAEmG7UBakHfS5IXVN7-63" edge="1">
          <mxGeometry relative="1" as="geometry" />
        </mxCell>
        <mxCell id="PeAEmG7UBakHfS5IXVN7-60" value="" style="rhombus;whiteSpace=wrap;html=1;fillColor=#FFFFFF;strokeColor=#000000;fontColor=#000000;rounded=1;arcSize=40;" parent="1" vertex="1">
          <mxGeometry x="1530" y="4890" width="80" height="80" as="geometry" />
        </mxCell>
        <mxCell id="PeAEmG7UBakHfS5IXVN7-66" style="edgeStyle=orthogonalEdgeStyle;rounded=0;orthogonalLoop=1;jettySize=auto;html=1;exitX=0.5;exitY=1;exitDx=0;exitDy=0;entryX=0.5;entryY=0;entryDx=0;entryDy=0;" parent="1" source="PeAEmG7UBakHfS5IXVN7-63" target="PeAEmG7UBakHfS5IXVN7-65" edge="1">
          <mxGeometry relative="1" as="geometry" />
        </mxCell>
        <mxCell id="PeAEmG7UBakHfS5IXVN7-63" value="&lt;span style=&quot;font-size: 11px;&quot;&gt;Trimite mesajul catre user_profile_result_queue&lt;/span&gt;" style="rounded=1;whiteSpace=wrap;html=1;arcSize=40;fontColor=#000000;fillColor=#FFFFFF;strokeColor=#000000;" parent="1" vertex="1">
          <mxGeometry x="1078" y="5020" width="140" height="50" as="geometry" />
        </mxCell>
        <mxCell id="PeAEmG7UBakHfS5IXVN7-72" style="edgeStyle=orthogonalEdgeStyle;rounded=0;orthogonalLoop=1;jettySize=auto;html=1;exitX=0.5;exitY=1;exitDx=0;exitDy=0;entryX=0.5;entryY=0;entryDx=0;entryDy=0;" parent="1" source="PeAEmG7UBakHfS5IXVN7-65" target="PeAEmG7UBakHfS5IXVN7-69" edge="1">
          <mxGeometry relative="1" as="geometry" />
        </mxCell>
        <mxCell id="PeAEmG7UBakHfS5IXVN7-65" value="&lt;span style=&quot;font-size: 11px;&quot;&gt;Consuma mesajul rezultat&lt;/span&gt;" style="rounded=1;whiteSpace=wrap;html=1;arcSize=40;fontColor=#000000;fillColor=#FFFFFF;strokeColor=#000000;" parent="1" vertex="1">
          <mxGeometry x="630" y="5110" width="140" height="50" as="geometry" />
        </mxCell>
        <mxCell id="PeAEmG7UBakHfS5IXVN7-69" value="Procesare reusita?" style="rhombus;whiteSpace=wrap;html=1;fontColor=#000000;fillColor=#FFFFFF;strokeColor=#000000;rounded=1;align=center;verticalAlign=middle;arcSize=40;fontFamily=Helvetica;fontSize=12;" parent="1" vertex="1">
          <mxGeometry x="655" y="5201" width="90" height="60" as="geometry" />
        </mxCell>
        <mxCell id="PeAEmG7UBakHfS5IXVN7-70" value="nu" style="edgeStyle=orthogonalEdgeStyle;html=1;align=center;verticalAlign=middle;endArrow=classic;endSize=8;strokeColor=default;rounded=0;entryX=0.5;entryY=0;entryDx=0;entryDy=0;fontFamily=Helvetica;fontSize=11;fontColor=default;labelBackgroundColor=default;" parent="1" source="PeAEmG7UBakHfS5IXVN7-69" target="PeAEmG7UBakHfS5IXVN7-75" edge="1">
          <mxGeometry x="-0.9265" y="11" relative="1" as="geometry">
            <mxPoint x="840" y="5231" as="targetPoint" />
            <mxPoint as="offset" />
          </mxGeometry>
        </mxCell>
        <mxCell id="PeAEmG7UBakHfS5IXVN7-71" value="da" style="edgeStyle=orthogonalEdgeStyle;html=1;align=center;verticalAlign=middle;endArrow=classic;endSize=8;strokeColor=default;rounded=0;entryX=0.5;entryY=0;entryDx=0;entryDy=0;fontFamily=Helvetica;fontSize=11;fontColor=default;labelBackgroundColor=default;" parent="1" source="PeAEmG7UBakHfS5IXVN7-69" target="PeAEmG7UBakHfS5IXVN7-74" edge="1">
          <mxGeometry x="-0.7761" y="-11" relative="1" as="geometry">
            <mxPoint x="700" y="5300" as="targetPoint" />
            <mxPoint as="offset" />
          </mxGeometry>
        </mxCell>
        <mxCell id="PeAEmG7UBakHfS5IXVN7-78" style="edgeStyle=orthogonalEdgeStyle;rounded=0;orthogonalLoop=1;jettySize=auto;html=1;exitX=0.5;exitY=1;exitDx=0;exitDy=0;entryX=0.5;entryY=0;entryDx=0;entryDy=0;" parent="1" source="PeAEmG7UBakHfS5IXVN7-74" target="PeAEmG7UBakHfS5IXVN7-77" edge="1">
          <mxGeometry relative="1" as="geometry" />
        </mxCell>
        <mxCell id="PeAEmG7UBakHfS5IXVN7-74" value="&lt;span style=&quot;font-size: 11px;&quot;&gt;Seteaza saga cu status completed&lt;/span&gt;" style="rounded=1;whiteSpace=wrap;html=1;arcSize=40;fontColor=#000000;fillColor=#FFFFFF;strokeColor=#000000;" parent="1" vertex="1">
          <mxGeometry x="500" y="5280" width="140" height="50" as="geometry" />
        </mxCell>
        <mxCell id="PeAEmG7UBakHfS5IXVN7-79" style="edgeStyle=orthogonalEdgeStyle;rounded=0;orthogonalLoop=1;jettySize=auto;html=1;exitX=0.5;exitY=1;exitDx=0;exitDy=0;" parent="1" source="PeAEmG7UBakHfS5IXVN7-75" target="PeAEmG7UBakHfS5IXVN7-76" edge="1">
          <mxGeometry relative="1" as="geometry" />
        </mxCell>
        <mxCell id="PeAEmG7UBakHfS5IXVN7-75" value="&lt;span style=&quot;font-size: 11px;&quot;&gt;Seteaza saga cu status failed&lt;/span&gt;" style="rounded=1;whiteSpace=wrap;html=1;arcSize=40;fontColor=#000000;fillColor=#FFFFFF;strokeColor=#000000;" parent="1" vertex="1">
          <mxGeometry x="762" y="5280" width="140" height="50" as="geometry" />
        </mxCell>
        <mxCell id="PeAEmG7UBakHfS5IXVN7-83" style="edgeStyle=orthogonalEdgeStyle;rounded=0;orthogonalLoop=1;jettySize=auto;html=1;exitX=0.5;exitY=1;exitDx=0;exitDy=0;entryX=1;entryY=0.5;entryDx=0;entryDy=0;" parent="1" source="PeAEmG7UBakHfS5IXVN7-76" target="PeAEmG7UBakHfS5IXVN7-80" edge="1">
          <mxGeometry relative="1" as="geometry" />
        </mxCell>
        <mxCell id="PeAEmG7UBakHfS5IXVN7-76" value="&lt;span style=&quot;font-size: 11px;&quot;&gt;Sterge credentiale user&lt;/span&gt;" style="rounded=1;whiteSpace=wrap;html=1;arcSize=40;fontColor=#000000;fillColor=#FFFFFF;strokeColor=#000000;" parent="1" vertex="1">
          <mxGeometry x="762" y="5370" width="140" height="50" as="geometry" />
        </mxCell>
        <mxCell id="PeAEmG7UBakHfS5IXVN7-84" style="edgeStyle=orthogonalEdgeStyle;rounded=0;orthogonalLoop=1;jettySize=auto;html=1;exitX=0.5;exitY=1;exitDx=0;exitDy=0;entryX=0;entryY=0.5;entryDx=0;entryDy=0;" parent="1" source="PeAEmG7UBakHfS5IXVN7-77" target="PeAEmG7UBakHfS5IXVN7-80" edge="1">
          <mxGeometry relative="1" as="geometry" />
        </mxCell>
        <mxCell id="PeAEmG7UBakHfS5IXVN7-77" value="&lt;span style=&quot;font-size: 11px;&quot;&gt;Sterge inregistrare saga&lt;/span&gt;" style="rounded=1;whiteSpace=wrap;html=1;arcSize=40;fontColor=#000000;fillColor=#FFFFFF;strokeColor=#000000;" parent="1" vertex="1">
          <mxGeometry x="500" y="5370" width="140" height="50" as="geometry" />
        </mxCell>
        <mxCell id="PeAEmG7UBakHfS5IXVN7-93" style="edgeStyle=orthogonalEdgeStyle;rounded=0;orthogonalLoop=1;jettySize=auto;html=1;exitX=0.5;exitY=1;exitDx=0;exitDy=0;entryX=0.5;entryY=0;entryDx=0;entryDy=0;" parent="1" source="PeAEmG7UBakHfS5IXVN7-80" target="PeAEmG7UBakHfS5IXVN7-92" edge="1">
          <mxGeometry relative="1" as="geometry" />
        </mxCell>
        <mxCell id="PeAEmG7UBakHfS5IXVN7-80" value="" style="rhombus;whiteSpace=wrap;html=1;fillColor=#FFFFFF;strokeColor=#000000;fontColor=#000000;rounded=1;arcSize=40;" parent="1" vertex="1">
          <mxGeometry x="660" y="5420" width="80" height="80" as="geometry" />
        </mxCell>
        <mxCell id="PeAEmG7UBakHfS5IXVN7-95" style="edgeStyle=orthogonalEdgeStyle;rounded=0;orthogonalLoop=1;jettySize=auto;html=1;exitX=0.5;exitY=1;exitDx=0;exitDy=0;entryX=1;entryY=0.5;entryDx=0;entryDy=0;" parent="1" source="PeAEmG7UBakHfS5IXVN7-92" target="PeAEmG7UBakHfS5IXVN7-94" edge="1">
          <mxGeometry relative="1" as="geometry" />
        </mxCell>
        <mxCell id="PeAEmG7UBakHfS5IXVN7-92" value="&lt;span style=&quot;font-size: 11px;&quot;&gt;Notifica frontend-ul prin WebSocket&lt;/span&gt;" style="rounded=1;whiteSpace=wrap;html=1;arcSize=40;fontColor=#000000;fillColor=#FFFFFF;strokeColor=#000000;" parent="1" vertex="1">
          <mxGeometry x="630" y="5540" width="140" height="50" as="geometry" />
        </mxCell>
        <mxCell id="PeAEmG7UBakHfS5IXVN7-102" style="edgeStyle=orthogonalEdgeStyle;rounded=0;orthogonalLoop=1;jettySize=auto;html=1;exitX=0.5;exitY=1;exitDx=0;exitDy=0;entryX=0.5;entryY=0;entryDx=0;entryDy=0;" parent="1" source="PeAEmG7UBakHfS5IXVN7-94" target="PeAEmG7UBakHfS5IXVN7-99" edge="1">
          <mxGeometry relative="1" as="geometry" />
        </mxCell>
        <mxCell id="PeAEmG7UBakHfS5IXVN7-94" value="" style="rhombus;whiteSpace=wrap;html=1;fillColor=#FFFFFF;strokeColor=#000000;fontColor=#000000;rounded=1;arcSize=40;" parent="1" vertex="1">
          <mxGeometry x="200.5" y="5570" width="80" height="80" as="geometry" />
        </mxCell>
        <mxCell id="PeAEmG7UBakHfS5IXVN7-99" value="Status completed?" style="rhombus;whiteSpace=wrap;html=1;fontColor=#000000;fillColor=#FFFFFF;strokeColor=#000000;rounded=1;align=center;verticalAlign=middle;arcSize=40;fontFamily=Helvetica;fontSize=12;" parent="1" vertex="1">
          <mxGeometry x="195" y="5680" width="90" height="60" as="geometry" />
        </mxCell>
        <mxCell id="PeAEmG7UBakHfS5IXVN7-100" value="nu" style="edgeStyle=orthogonalEdgeStyle;html=1;align=center;verticalAlign=middle;endArrow=classic;endSize=8;strokeColor=default;rounded=0;fontFamily=Helvetica;fontSize=11;fontColor=default;labelBackgroundColor=default;" parent="1" source="PeAEmG7UBakHfS5IXVN7-99" target="PeAEmG7UBakHfS5IXVN7-106" edge="1">
          <mxGeometry x="-0.9375" y="10" relative="1" as="geometry">
            <mxPoint x="375" y="5700" as="targetPoint" />
            <Array as="points">
              <mxPoint x="370" y="5710" />
            </Array>
            <mxPoint as="offset" />
          </mxGeometry>
        </mxCell>
        <mxCell id="PeAEmG7UBakHfS5IXVN7-101" value="da" style="edgeStyle=orthogonalEdgeStyle;html=1;align=center;verticalAlign=middle;endArrow=classic;endSize=8;strokeColor=default;rounded=0;entryX=0.5;entryY=0;entryDx=0;entryDy=0;exitX=0;exitY=0.5;exitDx=0;exitDy=0;fontFamily=Helvetica;fontSize=11;fontColor=default;labelBackgroundColor=default;" parent="1" source="PeAEmG7UBakHfS5IXVN7-99" target="PeAEmG7UBakHfS5IXVN7-104" edge="1">
          <mxGeometry x="-0.7778" y="-10" relative="1" as="geometry">
            <mxPoint x="235" y="5780" as="targetPoint" />
            <mxPoint as="offset" />
          </mxGeometry>
        </mxCell>
        <mxCell id="PeAEmG7UBakHfS5IXVN7-108" style="edgeStyle=orthogonalEdgeStyle;rounded=0;orthogonalLoop=1;jettySize=auto;html=1;exitX=0.5;exitY=1;exitDx=0;exitDy=0;entryX=0;entryY=0.5;entryDx=0;entryDy=0;" parent="1" source="PeAEmG7UBakHfS5IXVN7-104" target="PeAEmG7UBakHfS5IXVN7-107" edge="1">
          <mxGeometry relative="1" as="geometry" />
        </mxCell>
        <mxCell id="PeAEmG7UBakHfS5IXVN7-104" value="&lt;span style=&quot;font-size: 11px;&quot;&gt;Afiseaza mesajul de succes si redirectionare catre Login page&lt;/span&gt;" style="rounded=1;whiteSpace=wrap;html=1;arcSize=40;fontColor=#000000;fillColor=#FFFFFF;strokeColor=#000000;" parent="1" vertex="1">
          <mxGeometry x="50" y="5780" width="160" height="60" as="geometry" />
        </mxCell>
        <mxCell id="PeAEmG7UBakHfS5IXVN7-109" style="edgeStyle=orthogonalEdgeStyle;rounded=0;orthogonalLoop=1;jettySize=auto;html=1;exitX=0.5;exitY=1;exitDx=0;exitDy=0;entryX=1;entryY=0.5;entryDx=0;entryDy=0;" parent="1" source="PeAEmG7UBakHfS5IXVN7-106" target="PeAEmG7UBakHfS5IXVN7-107" edge="1">
          <mxGeometry relative="1" as="geometry" />
        </mxCell>
        <mxCell id="PeAEmG7UBakHfS5IXVN7-106" value="&lt;span style=&quot;font-size: 11px;&quot;&gt;Afiseaza mesajul de eroare&lt;/span&gt;" style="rounded=1;whiteSpace=wrap;html=1;arcSize=40;fontColor=#000000;fillColor=#FFFFFF;strokeColor=#000000;" parent="1" vertex="1">
          <mxGeometry x="300" y="5785" width="140" height="50" as="geometry" />
        </mxCell>
        <mxCell id="PeAEmG7UBakHfS5IXVN7-111" style="edgeStyle=orthogonalEdgeStyle;rounded=0;orthogonalLoop=1;jettySize=auto;html=1;exitX=0.5;exitY=1;exitDx=0;exitDy=0;entryX=0.5;entryY=0;entryDx=0;entryDy=0;" parent="1" source="PeAEmG7UBakHfS5IXVN7-107" target="PeAEmG7UBakHfS5IXVN7-110" edge="1">
          <mxGeometry relative="1" as="geometry" />
        </mxCell>
        <mxCell id="PeAEmG7UBakHfS5IXVN7-107" value="" style="rhombus;whiteSpace=wrap;html=1;fillColor=#FFFFFF;strokeColor=#000000;fontColor=#000000;rounded=1;arcSize=40;" parent="1" vertex="1">
          <mxGeometry x="203.5" y="5845" width="80" height="80" as="geometry" />
        </mxCell>
        <mxCell id="PeAEmG7UBakHfS5IXVN7-110" value="" style="ellipse;html=1;shape=endState;fillColor=#000000;strokeColor=light-dark(#000000, #ff9090);" parent="1" vertex="1">
          <mxGeometry x="228" y="5970" width="30" height="30" as="geometry" />
        </mxCell>
      </root>
    </mxGraphModel>
  </diagram>
</mxfile>
